<svg width="17" height="15" viewBox="0 0 17 15" fill="none" xmlns="http://www.w3.org/2000/svg">
<path d="M0.44322 6.78202L4.24099 8.17909L5.71097 12.8386C5.80502 13.137 6.17526 13.2473 6.42101 13.0493L8.53795 11.3483C8.75985 11.1701 9.07592 11.1612 9.30782 11.3271L13.126 14.0594C13.3889 14.2477 13.7614 14.1057 13.8273 13.7926L16.6243 0.531726C16.6963 0.189713 16.3553 -0.0956042 16.0249 0.0303492L0.43877 5.9566C0.0541355 6.10281 0.0574868 6.63955 0.44322 6.78202ZM5.47406 7.43539L12.8963 2.92972C13.0297 2.84898 13.167 3.02675 13.0524 3.13148L6.92689 8.74361C6.71159 8.94115 6.5727 9.20551 6.53336 9.49245L6.3247 11.0166C6.29706 11.2201 6.00704 11.2403 5.95006 11.0433L5.14756 8.26406C5.05564 7.94706 5.18959 7.60846 5.47406 7.43539Z" fill="#212137"/>
</svg>
