<svg width="22" height="16" viewBox="0 0 22 16" fill="none" xmlns="http://www.w3.org/2000/svg">
<path d="M21.2895 2.84511C21.0484 1.96151 20.3416 1.26498 19.4452 1.02706C17.8077 0.585449 11.2576 0.585449 11.2576 0.585449C11.2576 0.585449 4.70765 0.585449 3.07014 1.01032C2.19104 1.24799 1.46699 1.96164 1.22585 2.84511C0.794922 4.45897 0.794922 7.80591 0.794922 7.80591C0.794922 7.80591 0.794922 11.1697 1.22585 12.7667C1.46724 13.6502 2.1738 14.3467 3.07027 14.5846C4.72489 15.0264 11.2578 15.0264 11.2578 15.0264C11.2578 15.0264 17.8077 15.0264 19.4452 14.6015C20.3417 14.3637 21.0484 13.6672 21.2898 12.7837C21.7206 11.1697 21.7206 7.8229 21.7206 7.8229C21.7206 7.8229 21.7378 4.45897 21.2895 2.84511ZM9.17213 10.8979V4.71389L14.6189 7.80591L9.17213 10.8979Z" fill="#212137"/>
</svg>
