<svg width="22" height="22" viewBox="0 0 22 22" fill="none" xmlns="http://www.w3.org/2000/svg">
<g clip-path="url(#clip0_58397_1940)">
<path d="M16.5003 0H5.5006C2.47594 0 0.000732422 2.47521 0.000732422 5.49987V16.5001C0.000732422 19.524 2.47594 22 5.5006 22H16.5003C19.525 22 22.0002 19.524 22.0002 16.5001V5.49987C22.0002 2.47521 19.525 0 16.5003 0ZM20.1668 16.5001C20.1668 18.5213 18.5227 20.1666 16.5003 20.1666H5.5006C3.47913 20.1666 1.83411 18.5213 1.83411 16.5001V5.49987C1.83411 3.47813 3.47913 1.83338 5.5006 1.83338H16.5003C18.5227 1.83338 20.1668 3.47813 20.1668 5.49987V16.5001Z" fill="#212137"/>
<path d="M16.9591 6.41644C17.7184 6.41644 18.334 5.80084 18.334 5.04147C18.334 4.2821 17.7184 3.6665 16.9591 3.6665C16.1997 3.6665 15.5841 4.2821 15.5841 5.04147C15.5841 5.80084 16.1997 6.41644 16.9591 6.41644Z" fill="#212137"/>
<path d="M11.0001 5.5C7.96197 5.5 5.50024 7.962 5.50024 10.9999C5.50024 14.0366 7.96197 16.5003 11.0001 16.5003C14.0374 16.5003 16.5 14.0366 16.5 10.9999C16.5 7.962 14.0374 5.5 11.0001 5.5ZM11.0001 14.6669C8.97531 14.6669 7.33362 13.0252 7.33362 10.9999C7.33362 8.97453 8.97531 7.33338 11.0001 7.33338C13.0249 7.33338 14.6666 8.97453 14.6666 10.9999C14.6666 13.0252 13.0249 14.6669 11.0001 14.6669Z" fill="#212137"/>
</g>
<defs>
<clipPath id="clip0_58397_1940">
<rect width="22" height="22" fill="white"/>
</clipPath>
</defs>
</svg>
