<svg width="14" height="22" viewBox="0 0 14 22" fill="none" xmlns="http://www.w3.org/2000/svg">
<path d="M6.29394 15.1315C4.60429 14.9578 3.08082 14.5476 1.77649 13.5422C1.61464 13.4171 1.44755 13.2965 1.29986 13.1568C0.728958 12.6163 0.671434 11.9974 1.12318 11.3596C1.50964 10.8138 2.15838 10.6678 2.83269 10.9812C2.96326 11.0419 3.08767 11.1177 3.20683 11.1992C5.63767 12.8454 8.97702 12.8908 11.417 11.2732C11.6587 11.0905 11.9171 10.9416 12.2166 10.8655C12.7989 10.7181 13.342 10.929 13.6545 11.4311C14.0115 12.0046 14.0069 12.5644 13.5671 13.0096C12.8923 13.6922 12.0808 14.1861 11.1791 14.5307C10.3266 14.8565 9.3927 15.0205 8.46844 15.1294C8.60791 15.279 8.67365 15.3526 8.76085 15.439C10.0159 16.6818 11.2764 17.9195 12.5273 19.1661C12.9535 19.5909 13.0425 20.1176 12.8078 20.6116C12.5513 21.1516 11.9769 21.5069 11.4138 21.4688C11.057 21.4445 10.7788 21.2695 10.5315 21.024C9.58445 20.0847 8.61955 19.1627 7.69164 18.2057C7.4216 17.9273 7.29171 17.98 7.0534 18.2216C6.1006 19.1884 5.13228 20.1403 4.15825 21.0868C3.72089 21.5118 3.20043 21.5883 2.69322 21.3455C2.15405 21.0879 1.81096 20.5455 1.83744 20.0004C1.8557 19.6316 2.03968 19.3499 2.29649 19.0973C3.5385 17.8749 4.77709 16.6494 6.01614 15.4251C6.09809 15.3436 6.17456 15.2572 6.29394 15.1315Z" fill="#212137"/>
<path d="M7.32326 10.8735C4.30896 10.8634 1.83725 8.40043 1.85483 5.42472C1.87218 2.41618 4.34548 -0.00830321 7.38946 2.13731e-05C10.4396 0.00812097 12.8878 2.46747 12.8725 5.5073C12.857 8.47692 10.3681 10.8839 7.32326 10.8735ZM10.0627 5.43192C10.0575 3.95442 8.86362 2.77818 7.36754 2.77683C5.85891 2.77526 4.65433 3.97287 4.66597 5.46387C4.67716 6.93575 5.88128 8.10367 7.38147 8.09827C8.87709 8.09309 10.0677 6.9092 10.0627 5.43192Z" fill="#212137"/>
</svg>
