<svg width="19" height="15" viewBox="0 0 19 15" fill="none" xmlns="http://www.w3.org/2000/svg">
<path d="M18.7124 1.77419C18.0276 2.07373 17.3199 2.28111 16.5666 2.37327C17.3428 1.91244 17.9363 1.17512 18.2102 0.276498C17.4797 0.714286 16.6807 1.01383 15.8361 1.19816C15.1513 0.46083 14.1697 0 13.0967 0C11.0194 0 9.35292 1.70507 9.35292 3.7788C9.35292 4.07834 9.37575 4.35484 9.44423 4.63134C6.33961 4.49309 3.60023 2.97235 1.75115 0.691244C0.427123 3.08756 1.91095 5.06912 2.89256 5.73733C2.29903 5.73733 1.7055 5.553 1.20328 5.2765C1.20328 7.14286 2.50448 8.68664 4.19376 9.03226C3.82851 9.14747 3.0067 9.21659 2.50448 9.10138C2.98387 10.5991 4.37639 11.7051 5.99719 11.7281C4.71881 12.7419 2.8469 13.5484 0.449951 13.2949C2.1164 14.3779 4.07962 15 6.20264 15C13.0967 15 16.8405 9.23963 16.8405 4.26267C16.8405 4.10138 16.8405 3.94009 16.8177 3.7788C17.5939 3.20277 18.2331 2.53456 18.7124 1.77419Z" fill="#212137"/>
</svg>
