<svg width="20" height="12" viewBox="0 0 20 12" fill="none" xmlns="http://www.w3.org/2000/svg">
<path d="M19.894 10.5997C19.8698 10.5475 19.8472 10.5042 19.8262 10.4696C19.4792 9.8446 18.8161 9.07751 17.8373 8.16807L17.8166 8.14725L17.8063 8.13703L17.7958 8.12657H17.7853C17.341 7.70308 17.0597 7.41834 16.9419 7.27256C16.7264 6.99486 16.6781 6.71377 16.7959 6.42895C16.8791 6.21376 17.1918 5.75932 17.7331 5.06499C18.0178 4.69702 18.2433 4.4021 18.4099 4.17991C19.611 2.58314 20.1317 1.56279 19.9719 1.11844L19.9099 1.01461C19.8682 0.952092 19.7606 0.894903 19.5872 0.842748C19.4135 0.790701 19.1914 0.782094 18.9206 0.81678L15.9217 0.837496C15.8731 0.820281 15.8037 0.821885 15.7134 0.842748C15.6231 0.86361 15.5779 0.874078 15.5779 0.874078L15.5257 0.900156L15.4843 0.931485C15.4496 0.952202 15.4114 0.988638 15.3697 1.04072C15.3282 1.09262 15.2936 1.15353 15.2658 1.22294C14.9393 2.06294 14.5681 2.84392 14.1515 3.56586C13.8946 3.99634 13.6587 4.36942 13.4433 4.68531C13.2281 5.00109 13.0476 5.23375 12.9019 5.38288C12.756 5.53217 12.6244 5.65176 12.5061 5.7421C12.3881 5.83248 12.298 5.87067 12.2355 5.8567C12.173 5.84273 12.1141 5.82887 12.0583 5.81501C11.9612 5.7525 11.8831 5.66748 11.8242 5.55988C11.765 5.45229 11.7252 5.31687 11.7044 5.15373C11.6836 4.99048 11.6714 4.85006 11.6679 4.732C11.6646 4.61408 11.6661 4.44729 11.6732 4.2321C11.6804 4.01681 11.6836 3.87113 11.6836 3.79476C11.6836 3.53092 11.6888 3.24457 11.6991 2.93565C11.7096 2.62673 11.7181 2.38196 11.7252 2.20164C11.7323 2.02114 11.7356 1.83017 11.7356 1.62884C11.7356 1.42751 11.7233 1.26962 11.6991 1.15503C11.6752 1.04057 11.6385 0.929479 11.5901 0.821776C11.5414 0.714182 11.4701 0.630952 11.3766 0.571866C11.2829 0.512854 11.1664 0.466023 11.0278 0.431228C10.6598 0.347962 10.1912 0.302918 9.62185 0.295915C8.33069 0.282056 7.50105 0.365432 7.13311 0.545934C6.98733 0.622198 6.85541 0.7264 6.73746 0.858212C6.61247 1.011 6.59504 1.09437 6.68527 1.10809C7.10186 1.17049 7.39677 1.31977 7.57035 1.55579L7.6329 1.68085C7.68155 1.77108 7.73013 1.93083 7.77875 2.15988C7.8273 2.38893 7.85863 2.6423 7.87241 2.91986C7.90706 3.42672 7.90706 3.86059 7.87241 4.22153C7.83765 4.5826 7.80483 4.8637 7.7735 5.06503C7.74217 5.26635 7.69534 5.4295 7.6329 5.55441C7.57035 5.67937 7.52873 5.75574 7.50787 5.78346C7.48704 5.81118 7.46968 5.82865 7.4559 5.83551C7.36566 5.87008 7.27182 5.8877 7.17469 5.8877C7.07742 5.8877 6.95947 5.83905 6.82065 5.74181C6.68188 5.64457 6.53785 5.51101 6.38856 5.3409C6.23928 5.17076 6.07093 4.933 5.88342 4.62757C5.69606 4.32215 5.50166 3.96119 5.30033 3.54467L5.13376 3.2426C5.02963 3.04828 4.88739 2.76532 4.70689 2.394C4.52628 2.02252 4.36664 1.6632 4.22786 1.31609C4.17238 1.17031 4.08904 1.05932 3.97799 0.982948L3.92587 0.951618C3.89122 0.923899 3.8356 0.894466 3.7593 0.863099C3.68289 0.831769 3.60316 0.809302 3.51978 0.795479L0.666572 0.816196C0.375011 0.816196 0.177184 0.882247 0.073018 1.01417L0.0313299 1.07657C0.0105041 1.11133 0 1.16684 0 1.24325C0 1.31963 0.0208258 1.41336 0.0625139 1.52435C0.47903 2.50327 0.931983 3.44736 1.42137 4.35677C1.91076 5.26617 2.33603 5.99872 2.69692 6.55376C3.05789 7.1092 3.42583 7.63342 3.80073 8.12616C4.17563 8.61909 4.42379 8.93498 4.54521 9.07376C4.66677 9.21279 4.76225 9.31674 4.83166 9.38614L5.09204 9.63602C5.25865 9.80266 5.5033 10.0022 5.82612 10.2347C6.14901 10.4674 6.50648 10.6965 6.89871 10.9223C7.291 11.1477 7.74739 11.3317 8.2681 11.4739C8.78875 11.6164 9.2955 11.6735 9.78842 11.6459H10.986C11.2288 11.625 11.4128 11.5486 11.5379 11.4168L11.5793 11.3646C11.6072 11.3232 11.6333 11.2588 11.6573 11.1722C11.6817 11.0854 11.6938 10.9898 11.6938 10.8858C11.6867 10.5874 11.7094 10.3184 11.7614 10.0789C11.8133 9.8395 11.8724 9.65899 11.9386 9.53743C12.0047 9.41598 12.0793 9.31349 12.1624 9.23041C12.2456 9.14714 12.3049 9.0967 12.3397 9.07934C12.3743 9.06187 12.4019 9.05001 12.4227 9.0429C12.5893 8.98739 12.7854 9.04115 13.0112 9.20444C13.2369 9.36758 13.4486 9.56902 13.6465 9.80842C13.8444 10.048 14.0821 10.3169 14.3597 10.6153C14.6376 10.9139 14.8805 11.1358 15.0886 11.2818L15.2968 11.4068C15.4359 11.4902 15.6164 11.5665 15.8386 11.636C16.0604 11.7053 16.2547 11.7227 16.4215 11.688L19.0872 11.6464C19.3509 11.6464 19.556 11.6028 19.7015 11.5161C19.8474 11.4294 19.934 11.3338 19.9619 11.2298C19.9898 11.1257 19.9913 11.0076 19.9672 10.8756C19.9425 10.7439 19.9182 10.6518 19.894 10.5997Z" fill="#212137"/>
</svg>
