<svg width="36" height="36" viewBox="0 0 36 36" fill="none" xmlns="http://www.w3.org/2000/svg">
<path d="M31.5 9H26.745L24 6H15V9H22.68L25.425 12H31.5V30H7.5V16.5H4.5V30C4.5 31.65 5.85 33 7.5 33H31.5C33.15 33 34.5 31.65 34.5 30V12C34.5 10.35 33.15 9 31.5 9ZM12 21C12 25.14 15.36 28.5 19.5 28.5C23.64 28.5 27 25.14 27 21C27 16.86 23.64 13.5 19.5 13.5C15.36 13.5 12 16.86 12 21ZM19.5 16.5C21.975 16.5 24 18.525 24 21C24 23.475 21.975 25.5 19.5 25.5C17.025 25.5 15 23.475 15 21C15 18.525 17.025 16.5 19.5 16.5ZM7.5 9H12V6H7.5V1.5H4.5V6H0V9H4.5V13.5H7.5V9Z" fill="#7A7A87"/>
</svg>
