<svg width="39" height="39" viewBox="0 0 39 39" fill="none" xmlns="http://www.w3.org/2000/svg">
<path d="M25.5938 9.4H13.4062C12.9611 9.4 12.5629 9.54991 12.2752 9.83767C11.9874 10.1254 11.8375 10.5236 11.8375 10.9688C11.8375 11.4139 11.9874 11.8121 12.2752 12.0998C12.5629 12.3876 12.9611 12.5375 13.4062 12.5375H25.5938C26.3733 12.5375 27.1625 11.9157 27.1625 10.9688C27.1625 10.0218 26.3733 9.4 25.5938 9.4Z" fill="#AA0001" stroke="#AA0001" stroke-width="0.7"/>
<path d="M25.5938 14.275H13.4062C12.9611 14.275 12.5629 14.4249 12.2752 14.7127C11.9874 15.0004 11.8375 15.3986 11.8375 15.8438C11.8375 16.2889 11.9874 16.6871 12.2752 16.9748C12.5629 17.2626 12.9611 17.4125 13.4062 17.4125H17.9313V28.0312C17.9313 28.8108 18.5531 29.6 19.5 29.6C19.9185 29.6 20.3077 29.3943 20.5854 29.1166C20.863 28.839 21.0688 28.4498 21.0688 28.0312V17.4125H25.5938C26.3733 17.4125 27.1625 16.7907 27.1625 15.8438C27.1625 14.8968 26.3733 14.275 25.5938 14.275Z" fill="#AA0001" stroke="#AA0001" stroke-width="0.7"/>
<path d="M19.5 0.86875C9.19107 0.86875 0.86875 9.19107 0.86875 19.5C0.86875 29.8089 9.19107 38.1312 19.5 38.1312C29.8089 38.1312 38.1312 29.8089 38.1312 19.5C38.1312 9.19107 29.8089 0.86875 19.5 0.86875ZM19.5 34.9938C10.9183 34.9938 4.00625 28.0817 4.00625 19.5C4.00625 10.9183 10.9183 4.00625 19.5 4.00625C28.0817 4.00625 34.9938 10.9183 34.9938 19.5C34.9938 28.0817 28.0817 34.9938 19.5 34.9938Z" fill="#AA0001" stroke="#AA0001" stroke-width="0.7"/>
</svg>
