<svg width="12" height="23" viewBox="0 0 12 23" fill="none" xmlns="http://www.w3.org/2000/svg">
<path d="M0.313492 21.572C0.313239 21.3861 0.350283 21.202 0.422486 21.0303C0.49469 20.8586 0.600623 20.7027 0.734173 20.5717L8.06932 13.3304C8.29134 13.1113 8.46746 12.8511 8.58762 12.5648C8.70778 12.2786 8.76963 11.9717 8.76963 11.6618C8.76963 11.3519 8.70778 11.0451 8.58762 10.7588C8.46746 10.4725 8.29134 10.2124 8.06932 9.99329L0.743733 2.7633C0.606758 2.63271 0.497502 2.47651 0.42234 2.3038C0.347178 2.13109 0.307616 1.94533 0.305961 1.75737C0.304307 1.56941 0.340593 1.383 0.412702 1.20902C0.484812 1.03505 0.591302 0.876997 0.725957 0.744081C0.860612 0.611166 1.02074 0.506052 1.19699 0.434875C1.37324 0.363697 1.56208 0.327879 1.75251 0.329513C1.94293 0.331146 2.13112 0.370197 2.30609 0.444387C2.48106 0.518577 2.63931 0.626421 2.77161 0.761627L10.0972 7.99162C11.0821 8.96564 11.6353 10.2856 11.6353 11.6618C11.6353 13.038 11.0821 14.358 10.0972 15.332L2.76205 22.5733C2.56148 22.7714 2.30588 22.9064 2.0276 22.961C1.74932 23.0157 1.46086 22.9877 1.19872 22.8805C0.936588 22.7733 0.712557 22.5917 0.554981 22.3588C0.397404 22.1259 0.313363 21.8521 0.313492 21.572Z" fill="white"/>
</svg>
