<svg width="10" height="18" viewBox="0 0 10 18" fill="none" xmlns="http://www.w3.org/2000/svg">
<path d="M9.61254 1.12506C9.61274 1.27274 9.58289 1.41899 9.52469 1.55539C9.4665 1.69178 9.38112 1.81561 9.27348 1.91974L3.36152 7.67219C3.18257 7.84623 3.04062 8.05287 2.94378 8.2803C2.84693 8.50772 2.79709 8.75148 2.79709 8.99766C2.79709 9.24383 2.84693 9.48759 2.94378 9.71502C3.04062 9.94244 3.18257 10.1491 3.36152 10.3231L9.26577 16.0666C9.37617 16.1703 9.46423 16.2944 9.52481 16.4316C9.58539 16.5688 9.61727 16.7164 9.61861 16.8657C9.61994 17.015 9.5907 17.1631 9.53258 17.3013C9.47446 17.4395 9.38863 17.565 9.2801 17.6706C9.17157 17.7762 9.04252 17.8597 8.90046 17.9163C8.75841 17.9728 8.6062 18.0013 8.45272 18C8.29925 17.9987 8.14757 17.9676 8.00655 17.9087C7.86553 17.8498 7.73798 17.7641 7.63135 17.6567L1.7271 11.9132C0.933255 11.1395 0.487404 10.0909 0.487404 8.99766C0.487404 7.90441 0.933255 6.85583 1.7271 6.08207L7.63906 0.329628C7.80071 0.172254 8.00672 0.0650694 8.23101 0.0216363C8.4553 -0.0217969 8.68779 0.000473761 8.89906 0.0856303C9.11034 0.170787 9.2909 0.315002 9.41791 0.500027C9.54491 0.685052 9.61264 0.902571 9.61254 1.12506Z" fill="#212137"/>
</svg>
