<svg width="44" height="44" viewBox="0 0 44 44" fill="none" xmlns="http://www.w3.org/2000/svg">
<path d="M32.1406 9.96875C34.889 9.96875 37.125 7.73274 37.125 4.98438C37.125 2.23601 34.889 0 32.1406 0C29.3923 0 27.1562 2.23601 27.1562 4.98438C27.1562 7.73274 29.3923 9.96875 32.1406 9.96875ZM32.1406 3.4375C32.9936 3.4375 33.6875 4.13145 33.6875 4.98438C33.6875 5.8373 32.9936 6.53125 32.1406 6.53125C31.2877 6.53125 30.5938 5.8373 30.5938 4.98438C30.5938 4.13145 31.2877 3.4375 32.1406 3.4375ZM11.8594 9.96875C14.6077 9.96875 16.8438 7.73274 16.8438 4.98438C16.8438 2.23601 14.6077 0 11.8594 0C9.11101 0 6.875 2.23601 6.875 4.98438C6.875 7.73274 9.11101 9.96875 11.8594 9.96875ZM11.8594 3.4375C12.7123 3.4375 13.4062 4.13145 13.4062 4.98438C13.4062 5.8373 12.7123 6.53125 11.8594 6.53125C11.0064 6.53125 10.3125 5.8373 10.3125 4.98438C10.3125 4.13145 11.0064 3.4375 11.8594 3.4375ZM42.2812 20.2812H40.3746L38.6054 12.8185C38.4216 12.0435 37.7295 11.4963 36.933 11.4963H27.3484C26.5519 11.4963 25.8597 12.0435 25.6761 12.8185L23.9067 20.2812H20.0933L18.3241 12.8185C18.1404 12.0435 17.4482 11.4963 16.6518 11.4963H7.06707C6.27052 11.4963 5.57838 12.0435 5.39473 12.8185L3.62545 20.2812H1.71875C0.769484 20.2812 0 21.0507 0 22C0 22.9493 0.769484 23.7188 1.71875 23.7188H3.26562V42.2812C3.26562 43.2305 4.03511 44 4.98438 44C5.93364 44 6.70312 43.2305 6.70312 42.2812V40.7343H37.2969V42.2812C37.2969 43.2305 38.0664 44 39.0156 44C39.9649 44 40.7344 43.2305 40.7344 42.2812C40.7344 41.0207 40.7344 24.5692 40.7344 23.7188H42.2812C43.2305 23.7188 44 22.9493 44 22C44 21.0507 43.2305 20.2812 42.2812 20.2812ZM28.7073 14.9338H35.574L36.8418 20.2812H27.4395L28.7073 14.9338ZM8.426 14.9338H15.2927L16.5605 20.2812H7.15825L8.426 14.9338ZM6.70312 23.7188H37.2969V37.2968H6.70312V23.7188Z" fill="#AA0001"/>
</svg>
