<svg width="36" height="44" viewBox="0 0 36 44" fill="none" xmlns="http://www.w3.org/2000/svg">
<path d="M26.1875 28.7604C26.1875 29.7097 25.4445 30.4792 24.5279 30.4792H11.4721C10.5555 30.4792 9.81251 29.7097 9.81251 28.7604C9.81251 27.8112 10.5555 27.0417 11.4721 27.0417H24.5279C25.4445 27.0417 26.1875 27.8112 26.1875 28.7604ZM24.5279 16.9011H11.4721C10.5555 16.9011 9.81251 17.6706 9.81251 18.6198C9.81251 19.5691 10.5555 20.3386 11.4721 20.3386H24.5279C25.4445 20.3386 26.1875 19.5691 26.1875 18.6198C26.1875 17.6706 25.4445 16.9011 24.5279 16.9011ZM36 6.875V37.125C36 40.9159 33.022 44 29.3615 44H6.63848C2.97802 44 0 40.9159 0 37.125V6.875C0 3.08413 2.97802 0 6.63848 0H29.3615C33.022 0 36 3.08413 36 6.875ZM13.1318 5.0417C13.1318 5.98941 13.8763 6.76045 14.7914 6.76045H21.2086C22.1237 6.76045 22.8682 5.98941 22.8682 5.0417V3.4375H13.1318V5.0417ZM32.6808 6.875C32.6808 4.97956 31.1917 3.4375 29.3615 3.4375H26.1875V5.0417C26.1875 7.88485 23.954 10.1979 21.2086 10.1979H14.7914C12.046 10.1979 9.81251 7.88485 9.81251 5.0417V3.4375H6.63848C4.80825 3.4375 3.31924 4.97956 3.31924 6.875V37.125C3.31924 39.0204 4.80825 40.5625 6.63848 40.5625H29.3615C31.1917 40.5625 32.6808 39.0204 32.6808 37.125V6.875Z" fill="#AA0001"/>
</svg>
