<svg width="44" height="44" viewBox="0 0 44 44" fill="none" xmlns="http://www.w3.org/2000/svg">
<path d="M42.2812 0H1.71875C0.769484 0 0 0.769484 0 1.71875V33.5156C0 34.4649 0.769484 35.2344 1.71875 35.2344H14.6109L10.4423 41.3088C9.66058 42.4476 10.4784 44 11.8594 44H32.1406C33.522 44 34.3392 42.4474 33.5577 41.3088L29.3891 35.2344H42.2812C43.2305 35.2344 44 34.4649 44 33.5156C44 32.9237 44 2.72138 44 1.71875C44 0.769484 43.2305 0 42.2812 0ZM15.1235 40.5625L18.78 35.2344H25.22L28.8765 40.5625H15.1235ZM40.5625 31.7969C39.4847 31.7969 4.51447 31.7969 3.4375 31.7969V28.3594H40.5625V31.7969ZM40.5625 24.9219H3.4375V3.4375H40.5625V24.9219ZM15.674 17.832C16.1509 18.6581 17.2036 18.9336 18.0218 18.4611L18.6526 18.0969C19.1287 18.5043 19.6793 18.8268 20.2812 19.0403V19.7656C20.2812 20.7149 21.0507 21.4844 22 21.4844C22.9493 21.4844 23.7188 20.7149 23.7188 19.7656V19.0403C24.3207 18.8268 24.8713 18.5044 25.3474 18.0969L25.9782 18.4611C26.7975 18.934 27.8499 18.6569 28.326 17.832C28.8007 17.01 28.519 15.9588 27.697 15.4842L27.0686 15.1214C27.1251 14.8158 27.1562 14.5014 27.1562 14.1797C27.1562 13.8579 27.1251 13.5436 27.0685 13.238L27.6969 12.8752C28.519 12.4006 28.8006 11.3493 28.3259 10.5273C27.8513 9.70518 26.8001 9.42365 25.9781 9.89828L25.3473 10.2625C24.8712 9.85505 24.3207 9.53262 23.7187 9.31906V8.59375C23.7187 7.64448 22.9492 6.875 21.9999 6.875C21.0506 6.875 20.2812 7.64448 20.2812 8.59375V9.31906C19.6792 9.53253 19.1287 9.85497 18.6526 10.2625L18.0217 9.89828C17.1996 9.42382 16.1484 9.70527 15.6739 10.5273C15.1992 11.3493 15.4809 12.4006 16.3029 12.8752L16.9313 13.238C16.8749 13.5436 16.8438 13.8579 16.8438 14.1797C16.8438 14.5014 16.8749 14.8158 16.9315 15.1214L16.3031 15.4842C15.481 15.9588 15.1993 17.01 15.674 17.832ZM22 12.4609C22.9477 12.4609 23.7188 13.232 23.7188 14.1797C23.7188 15.1274 22.9477 15.8984 22 15.8984C21.0523 15.8984 20.2812 15.1274 20.2812 14.1797C20.2812 13.232 21.0523 12.4609 22 12.4609Z" fill="#AA0001"/>
</svg>
