<svg width="14" height="13" viewBox="0 0 14 13" fill="none" xmlns="http://www.w3.org/2000/svg">
<path d="M10.0938 12.9985C5.6089 13.1231 -2.33165 5.29948 1.48783 1.04944C1.50158 1.03644 2.08826 0.532736 2.08826 0.532736C2.45146 0.187207 2.93804 -0.00408736 3.44318 6.62532e-05C3.94832 0.00421986 4.43159 0.203489 4.78887 0.554942L5.97378 1.81095C6.32249 2.16973 6.51532 2.64816 6.51131 3.14462C6.50731 3.64108 6.30678 4.11645 5.95232 4.46973L5.73823 4.68313C6.37457 6.06904 7.50013 7.18076 8.90609 7.81203L9.13173 7.59539C9.49848 7.25127 9.98576 7.05929 10.4925 7.05929C10.9992 7.05929 11.4865 7.25127 11.8532 7.59539L13.0849 8.71978C13.4503 9.07 13.6601 9.54826 13.6685 10.0501C13.6768 10.552 13.4831 11.0368 13.1295 11.3986C13.1295 11.3986 12.6177 11.9765 12.6045 11.99C12.2745 12.3131 11.8826 12.5685 11.4517 12.7416C11.0207 12.9147 10.5592 13.002 10.0938 12.9985ZM2.63642 2.22041C-0.0383144 5.4793 8.52139 13.4172 11.4174 10.8592C11.4174 10.8592 11.9259 10.2856 11.9397 10.272C11.9664 10.2476 11.9877 10.218 12.0022 10.1851C12.0168 10.1522 12.0243 10.1167 12.0243 10.0809C12.0243 10.045 12.0168 10.0095 12.0022 9.97658C11.9877 9.94368 11.9664 9.9141 11.9397 9.88966L10.708 8.76636C10.5428 8.63095 10.4504 8.62933 10.2963 8.74469L9.67163 9.34967C9.55886 9.45885 9.41658 9.53384 9.26174 9.56572C9.10689 9.5976 8.946 9.58502 8.79821 9.52949C7.7001 9.12754 6.70265 8.49792 5.87348 7.68333C5.04432 6.86874 4.40283 5.88821 3.9925 4.80824C3.9326 4.6616 3.91746 4.50095 3.94893 4.34597C3.98041 4.19099 4.05714 4.04841 4.16971 3.9357L4.78006 3.3253C4.80788 3.30117 4.83024 3.27156 4.84572 3.2384C4.86119 3.20523 4.86943 3.16924 4.86989 3.13275C4.87036 3.09626 4.86305 3.06008 4.84843 3.02654C4.83381 2.99301 4.8122 2.96286 4.78501 2.93804L3.59954 1.68204C3.54638 1.6403 3.47939 1.61942 3.4115 1.62342C3.34361 1.62742 3.27963 1.65602 3.23191 1.70371C3.21925 1.71725 2.63642 2.22041 2.63642 2.22041Z" fill="#AA0001"/>
</svg>
