<svg width="21" height="18" viewBox="0 0 21 18" fill="none" xmlns="http://www.w3.org/2000/svg">
<path d="M11.1259 5.14985V1.68754C11.1259 0.907574 12.0094 0.48747 12.6096 0.924789L12.7124 1.01096L20.2056 8.19846C20.5553 8.5339 20.5871 9.07268 20.3011 9.44513L20.2057 9.55151L12.7125 16.7413C12.1496 17.2814 11.2347 16.9346 11.1348 16.1987L11.1259 16.0649V12.6582L10.6965 12.6958C7.69691 13.0087 4.82186 14.3599 2.05333 16.7717C1.40445 17.337 0.400533 16.8025 0.507251 15.9486C1.33824 9.29916 4.81558 5.63416 10.7517 5.17441L11.1259 5.14985ZM13.0009 3.88584V6.06254C13.0009 6.5803 12.5812 7.00004 12.0634 7.00004C7.22163 7.00004 4.22086 9.0952 2.9243 13.4465L2.82548 13.7947L3.26572 13.4987C6.06132 11.6715 8.99809 10.75 12.0634 10.75C12.538 10.75 12.9303 11.1027 12.9923 11.5603L13.0009 11.6875V13.8661L18.2024 8.87515L13.0009 3.88584Z" fill="#7A7A87"/>
</svg>
