<svg width="50" height="44" viewBox="0 0 50 44" fill="none" xmlns="http://www.w3.org/2000/svg">
<path d="M28.7109 0C17.6307 0 8.50188 8.79344 7.51242 19.9817H5.55158L3.3342 17.6902C2.57141 16.902 1.33479 16.902 0.572094 17.6902C-0.190601 18.4785 -0.190698 19.7564 0.572094 20.5446L1.98049 22L0.572094 23.4554C-0.190698 24.2437 -0.190698 25.5216 0.572094 26.3098C1.33479 27.0979 2.57141 27.098 3.3342 26.3098L5.55158 24.0183H7.51233C8.50188 35.2066 17.6307 44 28.7109 44C40.4498 44 50 34.1309 50 22C50 9.86912 40.4498 0 28.7109 0ZM28.7109 39.9633C19.7863 39.9633 12.4123 32.9766 11.4385 24.0183H18.6444C19.5591 28.8991 23.7247 32.5963 28.7109 32.5963C34.3649 32.5963 38.9649 27.8428 38.9649 22C38.9649 16.1572 34.3649 11.4037 28.7109 11.4037C23.7247 11.4037 19.5591 15.1009 18.6444 19.9817H11.4385C12.4123 11.0234 19.7863 4.0367 28.7109 4.0367C38.2958 4.0367 46.0938 12.0951 46.0938 22C46.0938 31.9049 38.2958 39.9633 28.7109 39.9633ZM28.7109 19.9817H22.6721C23.498 17.3494 25.8922 15.4404 28.7109 15.4404C32.211 15.4404 35.0586 18.383 35.0586 22C35.0586 25.617 32.211 28.5596 28.7109 28.5596C25.8922 28.5596 23.498 26.6506 22.6721 24.0183H28.7109C29.7897 24.0183 30.6641 23.1147 30.6641 22C30.6641 20.8853 29.7897 19.9817 28.7109 19.9817Z" fill="#AA0001"/>
</svg>
