<svg width="44" height="44" viewBox="0 0 44 44" fill="none" xmlns="http://www.w3.org/2000/svg">
<path d="M43.4968 36.2045L30.2654 22.9735C31.3101 20.8526 31.8982 18.4685 31.8982 15.9491C31.8982 7.15463 24.7436 0 15.9491 0C7.15463 0 0 7.15463 0 15.9491C0 24.7007 7.11166 31.8983 15.9491 31.8983C18.4685 31.8983 20.8526 31.3101 22.9732 30.2654L36.2045 43.4965C36.8755 44.1678 37.9639 44.1678 38.6352 43.4965L43.4964 38.6353C44.1678 37.9642 44.1678 36.8759 43.4968 36.2045ZM15.9491 28.4608C12.5976 28.4608 9.54946 27.1358 7.30132 24.9826C8.30102 22.7429 10.1383 20.9694 12.4166 20.055C13.4744 20.6072 14.6758 20.9197 15.9491 20.9197C17.2224 20.9197 18.4238 20.6072 19.4816 20.055C21.76 20.9694 23.5972 22.7429 24.5969 24.9823C22.3484 27.1358 19.3007 28.4608 15.9491 28.4608ZM11.7251 13.2572C11.7251 10.9278 13.6197 9.03284 15.9491 9.03284C18.2785 9.03284 20.1735 10.9278 20.1735 13.2572C20.1735 15.5869 18.2785 17.4822 15.9491 17.4822C13.6197 17.4822 11.7251 15.5869 11.7251 13.2572ZM22.2679 17.5856C23.1145 16.3533 23.611 14.8622 23.611 13.2572C23.611 9.0325 20.1738 5.59534 15.9491 5.59534C11.7244 5.59534 8.28759 9.0325 8.28759 13.2572C8.28759 14.8622 8.78374 16.3533 9.6307 17.5856C7.74242 18.6464 6.14956 20.1688 5.00283 22.0027C4.00616 20.2077 3.4375 18.1439 3.4375 15.9491C3.4375 9.05029 9.05028 3.4375 15.9491 3.4375C22.8479 3.4375 28.4607 9.05029 28.4607 15.9491C28.4607 18.1439 27.8921 20.2077 26.8954 22.0027C25.7483 20.1688 24.1561 18.6464 22.2679 17.5856ZM37.42 39.8505L25.9403 28.3711C26.7974 27.6803 27.6097 26.8847 28.3708 25.9404L39.8505 37.4201L37.42 39.8505Z" fill="#AA0001"/>
</svg>
