<svg width="11" height="6" viewBox="0 0 11 6" fill="none" xmlns="http://www.w3.org/2000/svg">
<path d="M9.38863 4.97279C9.30659 4.97336 9.22525 4.95746 9.14929 4.92602C9.07334 4.89457 9.00429 4.84821 8.94611 4.78959L5.73234 1.57021C5.63511 1.47277 5.51988 1.39568 5.39324 1.34335C5.26659 1.29103 5.13102 1.26449 4.99426 1.26525C4.8575 1.26601 4.72223 1.29406 4.59618 1.34779C4.47013 1.40152 4.35577 1.47989 4.25962 1.57841L1.08686 4.82911C1.02956 4.88988 0.960897 4.93848 0.884861 4.97208C0.808825 5.00567 0.726944 5.02359 0.643995 5.02478C0.561047 5.02597 0.478692 5.01042 0.401736 4.97902C0.324781 4.94762 0.254767 4.90102 0.195778 4.84192C0.136788 4.78282 0.090006 4.71241 0.0581605 4.6348C0.026315 4.55719 0.0100442 4.47394 0.0102975 4.38989C0.0105507 4.30585 0.027322 4.2227 0.0596343 4.1453C0.0919465 4.0679 0.139151 3.9978 0.198496 3.93908L3.37126 0.688377C3.7987 0.251308 4.37988 0.0039348 4.98722 0.000554489C5.59457 -0.00282582 6.17847 0.238063 6.61074 0.670347L9.82451 3.88973C9.91244 3.97776 9.97261 4.09023 9.99742 4.2129C10.0222 4.33558 10.0106 4.46295 9.96391 4.5789C9.91724 4.69485 9.83767 4.79417 9.73527 4.86428C9.63287 4.9344 9.51223 4.97216 9.38863 4.97279Z" fill="#212137"/>
</svg>
