<svg width="20" height="20" viewBox="0 0 20 20" fill="none" xmlns="http://www.w3.org/2000/svg">
<path d="M10 0C15.514 0 20 4.48599 20 10C20 15.514 15.514 20 10 20C4.48599 20 0 15.514 0 10C0 4.48595 4.48599 0 10 0ZM10 18.75C14.8247 18.75 18.75 14.8247 18.75 10C18.75 5.17525 14.8247 1.25 10 1.25C5.17525 1.25 1.25001 5.17522 1.25001 10C1.25001 14.8247 5.17525 18.75 10 18.75ZM4.4531 10C4.4531 10.3452 4.73295 10.625 5.07811 10.625H9.375V14.9219C9.375 15.2671 9.65484 15.5469 10 15.5469C10.3452 15.5469 10.625 15.2671 10.625 14.9219V10.625H14.9219C15.2671 10.625 15.5469 10.3452 15.5469 10C15.5469 9.6548 15.2671 9.375 14.9219 9.375H10.625V5.07811C10.625 4.73291 10.3452 4.4531 10 4.4531C9.65484 4.4531 9.375 4.73291 9.375 5.07811V9.375H5.07811C4.73295 9.375 4.4531 9.65484 4.4531 10Z" fill="#7A7A87"/>
</svg>
