<svg width="12" height="23" viewBox="0 0 12 23" fill="none" xmlns="http://www.w3.org/2000/svg">
<path d="M11.6865 1.74572C11.6868 1.93162 11.6497 2.11573 11.5775 2.28743C11.5053 2.45912 11.3994 2.61501 11.2659 2.74608L3.93071 9.9874C3.70869 10.2065 3.53257 10.4666 3.41241 10.7529C3.29225 11.0392 3.2304 11.346 3.2304 11.6559C3.2304 11.9658 3.29225 12.2727 3.41241 12.559C3.53257 12.8452 3.70869 13.1054 3.93071 13.3245L11.2563 20.5545C11.3933 20.685 11.5025 20.8412 11.5777 21.014C11.6529 21.1867 11.6924 21.3724 11.6941 21.5604C11.6957 21.7483 11.6594 21.9348 11.5873 22.1087C11.5152 22.2827 11.4087 22.4408 11.2741 22.5737C11.1394 22.7066 10.9793 22.8117 10.803 22.8829C10.6268 22.9541 10.4379 22.9899 10.2475 22.9882C10.0571 22.9866 9.86891 22.9476 9.69394 22.8734C9.51897 22.7992 9.36072 22.6913 9.22842 22.5561L1.90283 15.3261C0.91789 14.3521 0.36471 13.0321 0.36471 11.6559C0.36471 10.2797 0.91789 8.95975 1.90283 7.98572L9.23798 0.744412C9.43855 0.546306 9.69415 0.411379 9.97243 0.356704C10.2507 0.302029 10.5392 0.330064 10.8013 0.437261C11.0634 0.544458 11.2875 0.725999 11.445 0.958913C11.6026 1.19183 11.6867 1.46565 11.6865 1.74572Z" fill="#212137"/>
</svg>
