<svg width="28" height="42" viewBox="0 0 28 42" fill="none" xmlns="http://www.w3.org/2000/svg">
<path d="M13.0413 24.5318C5.58326 25.206 -0.0987139 31.5079 0.000297804 38.9956V39.3753C0.000297804 40.8251 1.17556 42.0003 2.6253 42.0003C4.07504 42.0003 5.2503 40.8251 5.2503 39.3753V38.8906C5.17138 34.2931 8.5642 30.3726 13.1253 29.7906C17.94 29.3132 22.2301 32.8292 22.7075 37.6439C22.7358 37.9285 22.75 38.2143 22.7503 38.5004V39.3753C22.7503 40.8251 23.9255 42.0003 25.3753 42.0003C26.825 42.0003 28.0003 40.8251 28.0003 39.3753V38.5003C27.9917 30.7596 21.7097 24.4915 13.9691 24.5C13.6596 24.5004 13.3501 24.511 13.0413 24.5318Z" fill="#AA0001"/>
<path d="M14 21C19.7989 21 24.5 16.299 24.5 10.5C24.5 4.70105 19.7989 0 14 0C8.20105 0 3.5 4.70105 3.5 10.5C3.50574 16.2966 8.20342 20.9942 14 21ZM14 5.25C16.8995 5.25 19.25 7.60052 19.25 10.5C19.25 13.3995 16.8995 15.75 14 15.75C11.1005 15.75 8.75 13.3995 8.75 10.5C8.75 7.60052 11.1005 5.25 14 5.25Z" fill="#AA0001"/>
</svg>
