<svg width="18" height="18" viewBox="0 0 18 18" fill="none" xmlns="http://www.w3.org/2000/svg">
<g clip-path="url(#clip0_58643_9286)">
<path d="M12.9375 1.38824C12.1683 1.39569 11.4114 1.5832 10.7277 1.93576C10.0439 2.28832 9.45222 2.79613 9.00002 3.41849C8.54782 2.79613 7.95614 2.28832 7.27238 1.93576C6.58862 1.5832 5.83178 1.39569 5.06252 1.38824C3.66884 1.4439 2.35391 2.04913 1.40523 3.07159C0.45655 4.09405 -0.0486785 5.45056 1.55342e-05 6.84449C1.55342e-05 10.2585 3.50552 13.9132 6.45002 16.3785C7.16502 16.9797 8.06922 17.3093 9.00339 17.3093C9.93756 17.3093 10.8418 16.9797 11.5568 16.3785C14.4983 13.9132 18.0068 10.2585 18.0068 6.84449C18.0554 5.44944 17.5493 4.09194 16.5992 3.06929C15.649 2.04663 14.3324 1.44216 12.9375 1.38824ZM10.1078 14.6542C9.79758 14.9154 9.40513 15.0586 8.99964 15.0586C8.59416 15.0586 8.2017 14.9154 7.89152 14.6542C4.30652 11.6482 2.25002 8.80199 2.25002 6.84449C2.2022 6.0474 2.47073 5.26363 2.9973 4.66333C3.52388 4.06303 4.26599 3.69468 5.06252 3.63824C5.85904 3.69468 6.60115 4.06303 7.12773 4.66333C7.65431 5.26363 7.92284 6.0474 7.87502 6.84449C7.87502 7.14286 7.99354 7.42901 8.20452 7.63999C8.4155 7.85097 8.70165 7.96949 9.00002 7.96949C9.29839 7.96949 9.58453 7.85097 9.79551 7.63999C10.0065 7.42901 10.125 7.14286 10.125 6.84449C10.0772 6.0474 10.3457 5.26363 10.8723 4.66333C11.3989 4.06303 12.141 3.69468 12.9375 3.63824C13.734 3.69468 14.4762 4.06303 15.0027 4.66333C15.5293 5.26363 15.7978 6.0474 15.75 6.84449C15.75 8.80199 13.6935 11.6482 10.1078 14.6542Z" fill="#212137"/>
</g>
<defs>
<clipPath id="clip0_58643_9286">
<rect width="18" height="18" fill="white"/>
</clipPath>
</defs>
</svg>
