<svg width="18" height="18" viewBox="0 0 18 18" fill="none" xmlns="http://www.w3.org/2000/svg">
<g clip-path="url(#clip0_58391_1659)">
<path d="M12.9375 1.38831C12.1683 1.39575 11.4114 1.58326 10.7277 1.93582C10.0439 2.28838 9.45225 2.79619 9.00005 3.41856C8.54785 2.79619 7.95617 2.28838 7.27241 1.93582C6.58865 1.58326 5.83181 1.39575 5.06255 1.38831C3.66887 1.44396 2.35394 2.04919 1.40526 3.07165C0.456581 4.09412 -0.048648 5.45062 4.60518e-05 6.84455C4.60518e-05 10.2586 3.50555 13.9133 6.45005 16.3785C7.16505 16.9798 8.06925 17.3094 9.00342 17.3094C9.93759 17.3094 10.8418 16.9798 11.5568 16.3785C14.4983 13.9133 18.0068 10.2586 18.0068 6.84455C18.0555 5.4495 17.5493 4.092 16.5992 3.06935C15.6491 2.04669 14.3324 1.44222 12.9375 1.38831ZM10.1078 14.6543C9.79762 14.9155 9.40516 15.0587 8.99967 15.0587C8.59419 15.0587 8.20173 14.9155 7.89155 14.6543C4.30655 11.6483 2.25005 8.80205 2.25005 6.84455C2.20223 6.04747 2.47076 5.26369 2.99733 4.66339C3.52391 4.0631 4.26602 3.69474 5.06255 3.6383C5.85907 3.69474 6.60119 4.0631 7.12776 4.66339C7.65434 5.26369 7.92287 6.04747 7.87505 6.84455C7.87505 7.14292 7.99357 7.42907 8.20455 7.64005C8.41553 7.85103 8.70168 7.96955 9.00005 7.96955C9.29842 7.96955 9.58456 7.85103 9.79554 7.64005C10.0065 7.42907 10.125 7.14292 10.125 6.84455C10.0772 6.04747 10.3458 5.26369 10.8723 4.66339C11.3989 4.0631 12.141 3.69474 12.9375 3.6383C13.7341 3.69474 14.4762 4.0631 15.0028 4.66339C15.5293 5.26369 15.7979 6.04747 15.75 6.84455C15.75 8.80205 13.6935 11.6483 10.1078 14.6543Z" fill="#AA0102"/>
<path d="M15.5 3.99996C14.3 0.799957 10.6667 3.66662 9 5.49996L8 4.5L5 3L2.5 3.5L1.5 8L4 12L7.5 15.5H11L15 10C15.6667 9.33332 16.7 7.19996 15.5 3.99996Z" fill="#AA0102"/>
</g>
<defs>
<clipPath id="clip0_58391_1659">
<rect width="18" height="18" fill="white"/>
</clipPath>
</defs>
</svg>
