<svg width="26" height="26" viewBox="0 0 26 26" fill="none" xmlns="http://www.w3.org/2000/svg">
<path d="M24.8895 9.41848L17.213 1.74199C14.8845 -0.580583 11.1154 -0.580583 8.78687 1.74199L1.11038 9.41848C0.397011 10.128 -0.00283946 11.0935 -4.65013e-05 12.0997V23.3425C0.00234021 24.81 1.19204 25.9987 2.65957 25.9999H23.3403C24.8079 25.9988 25.9975 24.81 25.9999 23.3425V12.0997C26.0027 11.0935 25.6029 10.128 24.8895 9.41848ZM22.7499 22.75H17.3333V19.3028C17.3333 17.0184 15.4814 15.1666 13.1971 15.1666H12.8028C10.5185 15.1666 8.66662 17.0184 8.66662 19.3028V22.75H3.24995V12.0997C3.2503 11.9561 3.30708 11.8183 3.40813 11.7162L11.0846 4.03974C12.1421 2.98192 13.857 2.98171 14.9148 4.03923C14.9149 4.03938 14.9151 4.03959 14.9153 4.03974L22.5918 11.7162C22.6928 11.8183 22.7496 11.9561 22.75 12.0997V22.75H22.7499Z" fill="#AA0001"/>
</svg>
