<svg width="45" height="40" viewBox="0 0 45 40" fill="none" xmlns="http://www.w3.org/2000/svg">
<path d="M43.5757 13.719C42.7567 12.682 41.5357 12.0872 40.2257 12.0872H32.5252L34.3879 5.58722C35.1922 2.7807 33.1163 0 30.2563 0C29.0001 0 27.8103 0.554696 26.9919 1.522L18.2964 11.8C18.142 11.9825 17.9223 12.0872 17.6939 12.0872H13.6917V11.2177C13.6917 10.2571 12.913 9.47852 11.9525 9.47852H1.73913C0.778609 9.47852 0 10.2571 0 11.2177V38.2609C0 39.2214 0.778609 40 1.73913 40H11.9526C12.9131 40 13.6917 39.2214 13.6917 38.2609V37.3913H36.2769C38.267 37.3913 39.9833 36.0201 40.4507 34.0568L44.3997 17.4691C44.7143 16.1471 44.4141 14.7803 43.5757 13.719ZM10.2135 36.5217H3.47817V12.9568H10.2135C10.2135 13.5611 10.2135 35.9524 10.2135 36.5217ZM41.016 16.6637L37.067 33.2513C36.9743 33.641 36.6493 33.9131 36.2768 33.9131H13.6917V15.5655H17.6939C18.9477 15.5655 20.135 15.0119 20.9517 14.0466L29.6471 3.76861C30.2351 3.07348 31.3042 3.722 31.0443 4.62896L29.027 11.6686C28.4663 13.6245 29.9186 15.5655 31.9244 15.5655H40.2257C40.553 15.5655 40.755 15.7593 40.8463 15.875C41.0209 16.0959 41.0828 16.3834 41.016 16.6637Z" fill="#AA0001"/>
</svg>
