<svg width="7" height="14" viewBox="0 0 7 14" fill="none" xmlns="http://www.w3.org/2000/svg">
<path d="M0.504016 12.6875C0.503883 12.5808 0.523501 12.4752 0.561739 12.3767C0.599978 12.2782 0.656079 12.1887 0.726807 12.1135L4.61147 7.95898C4.72905 7.83328 4.82232 7.68404 4.88596 7.51978C4.94959 7.35553 4.98234 7.17948 4.98234 7.00169C4.98234 6.8239 4.94959 6.64785 4.88596 6.4836C4.82232 6.31935 4.72905 6.17011 4.61147 6.04441L0.73187 1.89636C0.659329 1.82144 0.601467 1.73182 0.561662 1.63273C0.521856 1.53365 0.500904 1.42707 0.500028 1.31923C0.499152 1.21139 0.518369 1.10445 0.556558 1.00463C0.594747 0.904819 0.651143 0.814138 0.722456 0.737881C0.793768 0.661623 0.87857 0.601317 0.971911 0.56048C1.06525 0.519643 1.16526 0.499094 1.26611 0.500031C1.36696 0.500969 1.46662 0.523373 1.55929 0.565938C1.65195 0.608503 1.73576 0.670376 1.80582 0.747947L5.68542 4.89599C6.20704 5.45482 6.5 6.21213 6.5 7.00169C6.5 7.79126 6.20704 8.54856 5.68542 9.10739L1.80076 13.2619C1.69454 13.3756 1.55917 13.453 1.4118 13.4844C1.26442 13.5157 1.11166 13.4997 0.97283 13.4382C0.834005 13.3767 0.715359 13.2725 0.631908 13.1389C0.548456 13.0052 0.503948 12.8481 0.504016 12.6875Z" fill="#212137"/>
</svg>
