<svg width="6" height="14" viewBox="0 0 6 14" fill="none" xmlns="http://www.w3.org/2000/svg">
<path d="M5.99598 1.31254C5.99612 1.4192 5.9765 1.52483 5.93826 1.62334C5.90002 1.72184 5.84392 1.81128 5.77319 1.88648L1.88853 6.04102C1.77095 6.16672 1.67768 6.31596 1.61404 6.48022C1.55041 6.64447 1.51766 6.82052 1.51766 6.99831C1.51766 7.1761 1.55041 7.35215 1.61404 7.5164C1.67768 7.68065 1.77095 7.82989 1.88853 7.95559L5.76813 12.1036C5.84067 12.1786 5.89853 12.2682 5.93834 12.3673C5.97814 12.4664 5.99909 12.5729 5.99997 12.6808C6.00085 12.7886 5.98163 12.8956 5.94344 12.9954C5.90525 13.0952 5.84886 13.1859 5.77754 13.2621C5.70623 13.3384 5.62143 13.3987 5.52809 13.4395C5.43475 13.4804 5.33473 13.5009 5.23389 13.5C5.13304 13.499 5.03337 13.4766 4.94071 13.4341C4.84805 13.3915 4.76424 13.3296 4.69418 13.2521L0.814581 9.10401C0.292961 8.54518 -7.954e-07 7.78787 -7.60887e-07 6.99831C-7.26374e-07 6.20874 0.292961 5.45143 0.814581 4.89261L4.69924 0.738065C4.80546 0.624406 4.94083 0.546995 5.0882 0.515626C5.23558 0.484258 5.38834 0.500342 5.52717 0.561844C5.666 0.623346 5.78464 0.727501 5.86809 0.86113C5.95154 0.99476 5.99605 1.15186 5.99598 1.31254Z" fill="#212137"/>
</svg>
