<svg width="44" height="44" viewBox="0 0 44 44" fill="none" xmlns="http://www.w3.org/2000/svg">
<path d="M22.002 43.9958C10.1777 44.2399 -0.240335 33.8208 0.00422089 21.9951C0.0884319 19.7172 3.35762 19.719 3.44123 21.9953C3.34293 38.7166 24.3818 46.9374 35.6202 34.6091L33.3306 32.3127C32.8692 31.8499 32.7101 31.1652 32.9205 30.5463C33.1307 29.9273 33.6738 29.4812 34.3218 29.3953L42.0555 28.3697C42.5865 28.2991 43.1199 28.4804 43.4981 28.8597C43.8763 29.2389 44.0562 29.7728 43.9845 30.3036L42.9396 38.0382C42.766 39.4332 41.0008 40.0272 40.0195 39.0217L38.0489 37.0452C33.895 41.4821 28.1347 43.9958 22.002 43.9958ZM22.088 33.1674C15.9283 33.1674 10.9171 28.1556 10.9171 21.9953C11.4787 7.19425 32.6995 7.19829 33.2588 21.9954C33.2588 28.1556 28.2476 33.1674 22.088 33.1674ZM22.088 14.2607C17.8236 14.2607 14.3543 17.7304 14.3543 21.9953C14.7431 32.2421 29.4344 32.2393 29.8216 21.9952C29.8216 17.7304 26.3523 14.2607 22.088 14.2607ZM42.2814 23.7141C41.3322 23.7141 40.5628 22.9446 40.5628 21.9953C40.6601 5.27341 19.6231 -2.94679 8.38382 9.38132L10.6734 11.6777C11.1349 12.1406 11.2939 12.8253 11.0836 13.4442C10.8734 14.0631 10.3302 14.5092 9.68221 14.5952L1.94855 15.6208C1.41733 15.691 0.88414 15.5099 0.505964 15.1308C0.127702 14.7515 -0.0521489 14.2177 0.0195164 13.6868L1.06442 5.95225C1.15207 5.30427 1.59959 4.76216 2.21914 4.5535C2.83904 4.34475 3.52295 4.5058 3.98465 4.96884L5.95519 6.94537C19.5717 -7.51783 43.9599 2.10989 43.9999 21.9954C44 22.9446 43.2306 23.7141 42.2814 23.7141ZM25.4392 23.7141H22.0095C21.0603 23.7141 20.2909 22.9446 20.2909 21.9953V18.5577C20.3754 16.2796 23.6444 16.2813 23.7281 18.5577V20.2765H25.4392C27.717 20.361 27.7153 23.6304 25.4392 23.7141Z" fill="#AA0001"/>
</svg>
