<svg width="12" height="18" viewBox="0 0 12 18" fill="none" xmlns="http://www.w3.org/2000/svg">
<path d="M5.58927 10.5135C2.39297 10.8024 -0.0421621 13.5032 0.000271499 16.7123V16.875C0.000271499 17.4963 0.503955 18 1.12527 18C1.74659 18 2.25027 17.4963 2.25027 16.875V16.6673C2.21645 14.6969 3.67051 13.0167 5.62527 12.7673C7.6887 12.5627 9.52734 14.0695 9.73195 16.133C9.74404 16.255 9.75016 16.3774 9.75026 16.5V16.875C9.75026 17.4963 10.2539 18 10.8753 18C11.4966 18 12.0003 17.4963 12.0003 16.875V16.5C11.9966 13.1826 9.3043 10.4962 5.98689 10.4999C5.85424 10.5001 5.72164 10.5046 5.58927 10.5135Z" fill="#212137"/>
<path d="M6.00027 9C8.48554 9 10.5003 6.98527 10.5003 4.5C10.5003 2.01473 8.48554 0 6.00027 0C3.51501 0 1.50027 2.01473 1.50027 4.5C1.50274 6.98425 3.51603 8.9975 6.00027 9ZM6.00027 2.25C7.24291 2.25 8.25027 3.25737 8.25027 4.5C8.25027 5.74263 7.24291 6.75 6.00027 6.75C4.75764 6.75 3.75027 5.74263 3.75027 4.5C3.75027 3.25737 4.75764 2.25 6.00027 2.25Z" fill="#212137"/>
</svg>
