<svg width="16" height="16" viewBox="0 0 16 16" fill="none" xmlns="http://www.w3.org/2000/svg">
<path d="M11.8383 9.19395C11.8071 9.17899 10.6407 8.6046 10.4334 8.53001C10.3488 8.49962 10.2581 8.46996 10.1617 8.46996C10.0042 8.46996 9.87187 8.54845 9.76881 8.70263C9.65229 8.87582 9.29956 9.28814 9.19057 9.41131C9.17634 9.42757 9.15691 9.44699 9.14527 9.44699C9.13483 9.44699 8.95431 9.37266 8.89966 9.34892C7.64839 8.80538 6.69863 7.49832 6.56839 7.2779C6.54979 7.24621 6.54902 7.23183 6.54886 7.23183C6.55343 7.21505 6.59551 7.17286 6.61722 7.1511C6.68076 7.08824 6.74959 7.00538 6.81618 6.92523C6.84772 6.88725 6.8793 6.84923 6.91031 6.81338C7.00694 6.70097 7.04995 6.6137 7.09982 6.5126L7.12595 6.46008C7.24772 6.21816 7.14372 6.01401 7.11011 5.94808C7.08252 5.89292 6.59 4.70424 6.53764 4.57936C6.41172 4.27801 6.24533 4.1377 6.01411 4.1377C5.99265 4.1377 6.01411 4.1377 5.92413 4.14149C5.81457 4.14611 5.21795 4.22466 4.95416 4.39094C4.67442 4.56731 4.20117 5.12949 4.20117 6.11816C4.20117 7.00798 4.76585 7.84814 5.00829 8.16767C5.01431 8.17572 5.02538 8.19208 5.04143 8.21557C5.9699 9.57151 7.12735 10.5764 8.3007 11.0451C9.43031 11.4963 9.96522 11.5485 10.2693 11.5485C10.2694 11.5485 10.2694 11.5485 10.2694 11.5485C10.3972 11.5485 10.4995 11.5385 10.5897 11.5296L10.6469 11.5241C11.0372 11.4895 11.8947 11.0452 12.0898 10.5031C12.2435 10.0761 12.284 9.60964 12.1817 9.44034C12.1117 9.32523 11.991 9.26731 11.8383 9.19395Z" fill="#212137"/>
<path d="M8.14201 0C3.80871 0 0.283313 3.49891 0.283313 7.79964C0.283313 9.19065 0.655572 10.5523 1.36077 11.7439L0.0110009 15.7255C-0.0141419 15.7997 0.00455936 15.8818 0.0594685 15.9377C0.0991048 15.9782 0.152871 16 0.20778 16C0.228819 16 0.250014 15.9968 0.270689 15.9902L4.42238 14.671C5.55848 15.278 6.84253 15.5984 8.14207 15.5984C12.4749 15.5984 16 12.0999 16 7.79964C16 3.49891 12.4749 0 8.14201 0ZM8.14201 13.9737C6.91921 13.9737 5.73484 13.6206 4.71677 12.9526C4.68253 12.9301 4.64279 12.9185 4.60279 12.9185C4.58165 12.9185 4.56046 12.9218 4.53983 12.9283L2.46009 13.5894L3.13147 11.6087C3.15318 11.5446 3.14233 11.4739 3.10233 11.4192C2.32705 10.3599 1.91723 9.10831 1.91723 7.79964C1.91723 4.39481 4.70965 1.62473 8.14196 1.62473C11.5739 1.62473 14.366 4.39481 14.366 7.79964C14.366 11.2041 11.574 13.9737 8.14201 13.9737Z" fill="#212137"/>
</svg>
