<svg width="244" height="61" viewBox="0 0 244 61" fill="none" xmlns="http://www.w3.org/2000/svg">
<path d="M59.45 37V11.8H69.53C71.3267 11.8 72.7792 12.1617 73.8875 12.885C74.9958 13.5967 75.8067 14.495 76.32 15.58C76.8333 16.665 77.09 17.7617 77.09 18.87C77.09 20.2817 76.7692 21.4542 76.1275 22.3875C75.4975 23.3208 74.6283 23.945 73.52 24.26V23.385C75.095 23.7117 76.2733 24.4408 77.055 25.5725C77.8483 26.7042 78.245 27.97 78.245 29.37C78.245 30.875 77.965 32.1992 77.405 33.3425C76.8567 34.4858 76.0167 35.3842 74.885 36.0375C73.7533 36.6792 72.33 37 70.615 37H59.45ZM64.28 32.52H70.125C70.7667 32.52 71.3383 32.3858 71.84 32.1175C72.3417 31.8375 72.7325 31.4525 73.0125 30.9625C73.3042 30.4608 73.45 29.8717 73.45 29.195C73.45 28.6 73.3275 28.0692 73.0825 27.6025C72.8375 27.1358 72.4642 26.7683 71.9625 26.5C71.4725 26.22 70.86 26.08 70.125 26.08H64.28V32.52ZM64.28 21.635H69.46C69.9967 21.635 70.475 21.5417 70.895 21.355C71.315 21.1683 71.6475 20.8825 71.8925 20.4975C72.1375 20.1008 72.26 19.5933 72.26 18.975C72.26 18.205 72.0208 17.5575 71.5425 17.0325C71.0642 16.5075 70.37 16.245 69.46 16.245H64.28V21.635ZM88.7702 37.56C87.2885 37.56 86.081 37.3092 85.1477 36.8075C84.2143 36.3058 83.4852 35.67 82.9602 34.9C82.4468 34.13 82.0793 33.3308 81.8577 32.5025C81.636 31.6625 81.5018 30.8983 81.4552 30.21C81.4085 29.5217 81.3852 29.02 81.3852 28.705V18.1H86.2152V27.025C86.2152 27.4567 86.2385 28.0108 86.2852 28.6875C86.3318 29.3525 86.4777 30.0233 86.7227 30.7C86.9677 31.3767 87.3643 31.9425 87.9127 32.3975C88.4727 32.8525 89.2602 33.08 90.2752 33.08C90.6835 33.08 91.121 33.0158 91.5877 32.8875C92.0543 32.7592 92.4918 32.5142 92.9002 32.1525C93.3085 31.7792 93.641 31.2367 93.8977 30.525C94.166 29.8017 94.3002 28.8567 94.3002 27.69L97.0302 28.985C97.0302 30.4783 96.7268 31.8783 96.1202 33.185C95.5135 34.4917 94.5977 35.5475 93.3727 36.3525C92.1593 37.1575 90.6252 37.56 88.7702 37.56ZM94.8952 37V30.735H94.3002V18.1H99.0952V37H94.8952ZM112.071 45.925C110.998 45.925 109.977 45.75 109.009 45.4C108.04 45.0617 107.171 44.5833 106.401 43.965C105.643 43.3583 105.024 42.6467 104.546 41.83L108.956 39.695C109.259 40.255 109.691 40.6808 110.251 40.9725C110.823 41.2642 111.441 41.41 112.106 41.41C112.818 41.41 113.489 41.2875 114.119 41.0425C114.749 40.8092 115.25 40.4533 115.624 39.975C116.009 39.5083 116.189 38.925 116.166 38.225V32.73H116.761V18.1H120.926V38.295C120.926 38.7617 120.903 39.1992 120.856 39.6075C120.821 40.0275 120.751 40.4417 120.646 40.85C120.343 42.005 119.777 42.9558 118.949 43.7025C118.132 44.4492 117.129 45.0033 115.939 45.365C114.749 45.7383 113.459 45.925 112.071 45.925ZM111.651 37.525C109.913 37.525 108.39 37.0875 107.084 36.2125C105.777 35.3375 104.756 34.1475 104.021 32.6425C103.298 31.1375 102.936 29.44 102.936 27.55C102.936 25.625 103.304 23.9158 104.039 22.4225C104.785 20.9175 105.829 19.7333 107.171 18.87C108.513 18.0067 110.088 17.575 111.896 17.575C113.693 17.575 115.204 18.0125 116.429 18.8875C117.654 19.7625 118.581 20.9525 119.211 22.4575C119.841 23.9625 120.156 25.66 120.156 27.55C120.156 29.44 119.835 31.1375 119.194 32.6425C118.564 34.1475 117.619 35.3375 116.359 36.2125C115.099 37.0875 113.529 37.525 111.651 37.525ZM112.421 33.29C113.483 33.29 114.329 33.0508 114.959 32.5725C115.6 32.0942 116.061 31.4233 116.341 30.56C116.621 29.6967 116.761 28.6933 116.761 27.55C116.761 26.4067 116.621 25.4033 116.341 24.54C116.061 23.6767 115.612 23.0058 114.994 22.5275C114.387 22.0492 113.588 21.81 112.596 21.81C111.534 21.81 110.659 22.0725 109.971 22.5975C109.294 23.1108 108.793 23.805 108.466 24.68C108.139 25.5433 107.976 26.5 107.976 27.55C107.976 28.6117 108.134 29.58 108.449 30.455C108.764 31.3183 109.248 32.0067 109.901 32.52C110.554 33.0333 111.394 33.29 112.421 33.29ZM131.077 37.525C129.724 37.525 128.574 37.2683 127.629 36.755C126.696 36.23 125.984 35.5358 125.494 34.6725C125.016 33.7975 124.777 32.835 124.777 31.785C124.777 30.91 124.911 30.1108 125.179 29.3875C125.448 28.6642 125.879 28.0283 126.474 27.48C127.081 26.92 127.892 26.4533 128.907 26.08C129.607 25.8233 130.441 25.5958 131.409 25.3975C132.378 25.1992 133.474 25.0125 134.699 24.8375C135.924 24.6508 137.272 24.4467 138.742 24.225L137.027 25.17C137.027 24.05 136.759 23.2275 136.222 22.7025C135.685 22.1775 134.787 21.915 133.527 21.915C132.827 21.915 132.098 22.0842 131.339 22.4225C130.581 22.7608 130.05 23.3617 129.747 24.225L125.442 22.86C125.92 21.2967 126.819 20.025 128.137 19.045C129.455 18.065 131.252 17.575 133.527 17.575C135.195 17.575 136.677 17.8317 137.972 18.345C139.267 18.8583 140.247 19.745 140.912 21.005C141.285 21.705 141.507 22.405 141.577 23.105C141.647 23.805 141.682 24.5867 141.682 25.45V37H137.517V33.115L138.112 33.92C137.19 35.1917 136.193 36.1133 135.119 36.685C134.058 37.245 132.71 37.525 131.077 37.525ZM132.092 33.78C132.967 33.78 133.702 33.6283 134.297 33.325C134.904 33.01 135.382 32.6542 135.732 32.2575C136.094 31.8608 136.339 31.5283 136.467 31.26C136.712 30.7467 136.852 30.1517 136.887 29.475C136.934 28.7867 136.957 28.215 136.957 27.76L138.357 28.11C136.945 28.3433 135.802 28.5417 134.927 28.705C134.052 28.8567 133.346 28.9967 132.809 29.125C132.273 29.2533 131.8 29.3933 131.392 29.545C130.925 29.7317 130.546 29.9358 130.254 30.1575C129.974 30.3675 129.764 30.6008 129.624 30.8575C129.496 31.1142 129.432 31.4 129.432 31.715C129.432 32.1467 129.537 32.52 129.747 32.835C129.969 33.1383 130.278 33.3717 130.674 33.535C131.071 33.6983 131.544 33.78 132.092 33.78ZM154.562 37.525C152.602 37.525 150.922 37.0875 149.522 36.2125C148.122 35.3375 147.049 34.1475 146.302 32.6425C145.556 31.1375 145.182 29.44 145.182 27.55C145.182 25.6367 145.567 23.9275 146.337 22.4225C147.119 20.9175 148.216 19.7333 149.627 18.87C151.039 18.0067 152.707 17.575 154.632 17.575C156.861 17.575 158.727 18.1408 160.232 19.2725C161.749 20.3925 162.717 21.9267 163.137 23.875L158.377 25.135C158.097 24.155 157.607 23.3908 156.907 22.8425C156.219 22.2942 155.437 22.02 154.562 22.02C153.559 22.02 152.736 22.265 152.095 22.755C151.453 23.2333 150.981 23.8925 150.677 24.7325C150.374 25.5608 150.222 26.5 150.222 27.55C150.222 29.195 150.584 30.5308 151.307 31.5575C152.042 32.5725 153.127 33.08 154.562 33.08C155.636 33.08 156.452 32.835 157.012 32.345C157.572 31.855 157.992 31.155 158.272 30.245L163.137 31.26C162.601 33.2667 161.586 34.8125 160.092 35.8975C158.599 36.9825 156.756 37.525 154.562 37.525ZM179.518 37V28.075C179.518 27.6433 179.494 27.095 179.448 26.43C179.401 25.7533 179.255 25.0767 179.01 24.4C178.765 23.7233 178.363 23.1575 177.803 22.7025C177.254 22.2475 176.473 22.02 175.458 22.02C175.049 22.02 174.612 22.0842 174.145 22.2125C173.678 22.3408 173.241 22.5917 172.833 22.965C172.424 23.3267 172.086 23.8633 171.818 24.575C171.561 25.2867 171.433 26.2317 171.433 27.41L168.703 26.115C168.703 24.6217 169.006 23.2217 169.613 21.915C170.219 20.6083 171.129 19.5525 172.343 18.7475C173.568 17.9425 175.108 17.54 176.963 17.54C178.444 17.54 179.652 17.7908 180.585 18.2925C181.518 18.7942 182.242 19.43 182.755 20.2C183.28 20.97 183.653 21.775 183.875 22.615C184.097 23.4433 184.231 24.2017 184.278 24.89C184.324 25.5783 184.348 26.08 184.348 26.395V37H179.518ZM166.603 37V11.8H170.838V24.75H171.433V37H166.603ZM189.238 15.475V11.275H193.998V15.475H189.238ZM189.238 37V18.1H193.998V37H189.238ZM208.03 37.525C206.093 37.525 204.384 37.1108 202.902 36.2825C201.432 35.4425 200.277 34.2933 199.437 32.835C198.609 31.365 198.195 29.685 198.195 27.795C198.195 25.73 198.603 23.9333 199.42 22.405C200.237 20.8767 201.362 19.6925 202.797 18.8525C204.232 18.0008 205.883 17.575 207.75 17.575C209.733 17.575 211.419 18.0417 212.807 18.975C214.196 19.9083 215.222 21.2208 215.887 22.9125C216.552 24.6042 216.786 26.5933 216.587 28.88H211.88V27.13C211.88 25.205 211.571 23.8225 210.952 22.9825C210.346 22.1308 209.348 21.705 207.96 21.705C206.338 21.705 205.142 22.2008 204.372 23.1925C203.614 24.1725 203.235 25.625 203.235 27.55C203.235 29.3117 203.614 30.6767 204.372 31.645C205.142 32.6017 206.268 33.08 207.75 33.08C208.683 33.08 209.482 32.8758 210.147 32.4675C210.812 32.0592 211.32 31.47 211.67 30.7L216.43 32.065C215.718 33.7917 214.592 35.1333 213.052 36.09C211.524 37.0467 209.85 37.525 208.03 37.525ZM201.765 28.88V25.345H214.295V28.88H201.765ZM224.965 37L218.105 18.1H222.865L227.345 31.19L231.825 18.1H236.585L229.725 37H224.965Z" fill="white"/>
<path d="M57.32 56L61.288 44.48H62.848L66.816 56H65.592L61.824 45.136H62.288L58.544 56H57.32ZM59.088 53.208V52.104H65.04V53.208H59.088ZM68.2606 56V47.36H74.1806V48.488H69.4366V56H68.2606ZM79.3541 56.24C78.5115 56.24 77.7808 56.0533 77.1621 55.68C76.5488 55.3067 76.0715 54.7813 75.7301 54.104C75.3888 53.4267 75.2181 52.632 75.2181 51.72C75.2181 50.776 75.3861 49.96 75.7221 49.272C76.0581 48.584 76.5301 48.0533 77.1381 47.68C77.7515 47.3067 78.4741 47.12 79.3061 47.12C80.1595 47.12 80.8875 47.3173 81.4901 47.712C82.0928 48.1013 82.5488 48.6613 82.8581 49.392C83.1675 50.1227 83.3088 50.9947 83.2821 52.008H82.0821V51.592C82.0608 50.472 81.8181 49.6267 81.3541 49.056C80.8955 48.4853 80.2235 48.2 79.3381 48.2C78.4101 48.2 77.6981 48.5013 77.2021 49.104C76.7115 49.7067 76.4661 50.5653 76.4661 51.68C76.4661 52.768 76.7115 53.6133 77.2021 54.216C77.6981 54.8133 78.3995 55.112 79.3061 55.112C79.9248 55.112 80.4635 54.9707 80.9221 54.688C81.3861 54.4 81.7515 53.9867 82.0181 53.448L83.1141 53.872C82.7728 54.624 82.2688 55.208 81.6021 55.624C80.9408 56.0347 80.1915 56.24 79.3541 56.24ZM76.0501 52.008V51.024H82.6501V52.008H76.0501ZM85.0495 56V47.36H86.2255V51.112H91.0975V47.36H92.2735V56H91.0975V52.24H86.2255V56H85.0495ZM98.0946 56.24C97.2253 56.24 96.4893 56.0453 95.8866 55.656C95.284 55.2667 94.8253 54.7307 94.5106 54.048C94.2013 53.36 94.0413 52.5707 94.0306 51.68C94.0413 50.7733 94.2066 49.9787 94.5266 49.296C94.8466 48.608 95.308 48.0747 95.9106 47.696C96.5133 47.312 97.244 47.12 98.1026 47.12C98.9773 47.12 99.7373 47.3333 100.383 47.76C101.033 48.1867 101.479 48.7707 101.719 49.512L100.567 49.88C100.364 49.3627 100.041 48.9627 99.5986 48.68C99.1613 48.392 98.66 48.248 98.0946 48.248C97.46 48.248 96.9346 48.3947 96.5186 48.688C96.1026 48.976 95.7933 49.3787 95.5906 49.896C95.388 50.4133 95.284 51.008 95.2786 51.68C95.2893 52.7147 95.5293 53.5467 95.9986 54.176C96.468 54.8 97.1666 55.112 98.0946 55.112C98.6813 55.112 99.18 54.9787 99.5906 54.712C100.007 54.44 100.321 54.0453 100.535 53.528L101.719 53.88C101.399 54.648 100.929 55.2347 100.311 55.64C99.692 56.04 98.9533 56.24 98.0946 56.24ZM105.511 56V48.448H102.447V47.36H109.751V48.448H106.687V56H105.511ZM111.268 56V47.36H114.828C115.01 47.36 115.228 47.3707 115.484 47.392C115.746 47.4133 115.988 47.4533 116.212 47.512C116.698 47.64 117.087 47.9013 117.38 48.296C117.679 48.6907 117.828 49.1653 117.828 49.72C117.828 50.0293 117.78 50.3067 117.684 50.552C117.594 50.792 117.463 51 117.292 51.176C117.212 51.2667 117.124 51.3467 117.028 51.416C116.932 51.48 116.839 51.5333 116.748 51.576C116.919 51.608 117.103 51.6827 117.3 51.8C117.61 51.9813 117.844 52.2267 118.004 52.536C118.164 52.84 118.244 53.2107 118.244 53.648C118.244 54.24 118.103 54.7227 117.82 55.096C117.538 55.4693 117.159 55.7253 116.684 55.864C116.471 55.9227 116.239 55.96 115.988 55.976C115.743 55.992 115.511 56 115.292 56H111.268ZM112.452 55H115.236C115.348 55 115.49 54.992 115.66 54.976C115.831 54.9547 115.983 54.928 116.116 54.896C116.431 54.816 116.66 54.656 116.804 54.416C116.954 54.1707 117.028 53.904 117.028 53.616C117.028 53.2373 116.916 52.928 116.692 52.688C116.474 52.4427 116.18 52.2933 115.812 52.24C115.69 52.2133 115.562 52.1973 115.428 52.192C115.295 52.1867 115.175 52.184 115.068 52.184H112.452V55ZM112.452 51.176H114.868C115.007 51.176 115.162 51.168 115.332 51.152C115.508 51.1307 115.66 51.096 115.788 51.048C116.066 50.952 116.268 50.7867 116.396 50.552C116.53 50.3173 116.596 50.0613 116.596 49.784C116.596 49.48 116.524 49.2133 116.38 48.984C116.242 48.7547 116.031 48.5947 115.748 48.504C115.556 48.4347 115.348 48.3947 115.124 48.384C114.906 48.3733 114.767 48.368 114.708 48.368H112.452V51.176ZM123.447 56.24C122.588 56.24 121.855 56.0453 121.247 55.656C120.639 55.2667 120.172 54.728 119.847 54.04C119.521 53.352 119.359 52.5627 119.359 51.672C119.359 50.7653 119.524 49.9707 119.855 49.288C120.185 48.6053 120.655 48.0747 121.263 47.696C121.876 47.312 122.604 47.12 123.447 47.12C124.311 47.12 125.047 47.3147 125.655 47.704C126.268 48.088 126.735 48.624 127.055 49.312C127.38 49.9947 127.543 50.7813 127.543 51.672C127.543 52.5787 127.38 53.376 127.055 54.064C126.729 54.7467 126.26 55.28 125.647 55.664C125.033 56.048 124.3 56.24 123.447 56.24ZM123.447 55.112C124.407 55.112 125.121 54.7947 125.591 54.16C126.06 53.52 126.295 52.6907 126.295 51.672C126.295 50.6267 126.057 49.7947 125.583 49.176C125.113 48.5573 124.401 48.248 123.447 48.248C122.801 48.248 122.268 48.3947 121.847 48.688C121.431 48.976 121.119 49.3787 120.911 49.896C120.708 50.408 120.607 51 120.607 51.672C120.607 52.712 120.847 53.5467 121.327 54.176C121.807 54.8 122.513 55.112 123.447 55.112ZM132.503 56V47.36H133.679V51.112H138.551V47.36H139.727V56H138.551V52.24H133.679V56H132.503ZM145.62 56.24C144.777 56.24 144.046 56.0533 143.428 55.68C142.814 55.3067 142.337 54.7813 141.996 54.104C141.654 53.4267 141.484 52.632 141.484 51.72C141.484 50.776 141.652 49.96 141.988 49.272C142.324 48.584 142.796 48.0533 143.404 47.68C144.017 47.3067 144.74 47.12 145.572 47.12C146.425 47.12 147.153 47.3173 147.756 47.712C148.358 48.1013 148.814 48.6613 149.124 49.392C149.433 50.1227 149.574 50.9947 149.548 52.008H148.348V51.592C148.326 50.472 148.084 49.6267 147.62 49.056C147.161 48.4853 146.489 48.2 145.604 48.2C144.676 48.2 143.964 48.5013 143.468 49.104C142.977 49.7067 142.732 50.5653 142.732 51.68C142.732 52.768 142.977 53.6133 143.468 54.216C143.964 54.8133 144.665 55.112 145.572 55.112C146.19 55.112 146.729 54.9707 147.188 54.688C147.652 54.4 148.017 53.9867 148.284 53.448L149.38 53.872C149.038 54.624 148.534 55.208 147.868 55.624C147.206 56.0347 146.457 56.24 145.62 56.24ZM142.316 52.008V51.024H148.916V52.008H142.316ZM150.683 57.92V54.992C151.174 54.992 151.526 54.8347 151.739 54.52C151.952 54.2 152.126 53.6907 152.259 52.992C152.35 52.5387 152.424 52.0507 152.483 51.528C152.542 51.0053 152.592 50.408 152.635 49.736C152.678 49.0587 152.718 48.2667 152.755 47.36H158.467V54.992H159.299V57.92H158.163V56H151.811V57.92H150.683ZM152.675 54.992H157.299V48.368H153.843C153.827 48.7733 153.803 49.2027 153.771 49.656C153.744 50.1093 153.71 50.5627 153.667 51.016C153.63 51.4693 153.584 51.896 153.531 52.296C153.483 52.6907 153.424 53.0373 153.355 53.336C153.275 53.72 153.187 54.048 153.091 54.32C153 54.592 152.862 54.816 152.675 54.992ZM160.893 56V47.36H164.453C164.635 47.36 164.853 47.3707 165.109 47.392C165.371 47.4133 165.613 47.4533 165.837 47.512C166.323 47.64 166.712 47.9013 167.005 48.296C167.304 48.6907 167.453 49.1653 167.453 49.72C167.453 50.0293 167.405 50.3067 167.309 50.552C167.219 50.792 167.088 51 166.917 51.176C166.837 51.2667 166.749 51.3467 166.653 51.416C166.557 51.48 166.464 51.5333 166.373 51.576C166.544 51.608 166.728 51.6827 166.925 51.8C167.235 51.9813 167.469 52.2267 167.629 52.536C167.789 52.84 167.869 53.2107 167.869 53.648C167.869 54.24 167.728 54.7227 167.445 55.096C167.163 55.4693 166.784 55.7253 166.309 55.864C166.096 55.9227 165.864 55.96 165.613 55.976C165.368 55.992 165.136 56 164.917 56H160.893ZM162.077 55H164.861C164.973 55 165.115 54.992 165.285 54.976C165.456 54.9547 165.608 54.928 165.741 54.896C166.056 54.816 166.285 54.656 166.429 54.416C166.579 54.1707 166.653 53.904 166.653 53.616C166.653 53.2373 166.541 52.928 166.317 52.688C166.099 52.4427 165.805 52.2933 165.437 52.24C165.315 52.2133 165.187 52.1973 165.053 52.192C164.92 52.1867 164.8 52.184 164.693 52.184H162.077V55ZM162.077 51.176H164.493C164.632 51.176 164.787 51.168 164.957 51.152C165.133 51.1307 165.285 51.096 165.413 51.048C165.691 50.952 165.893 50.7867 166.021 50.552C166.155 50.3173 166.221 50.0613 166.221 49.784C166.221 49.48 166.149 49.2133 166.005 48.984C165.867 48.7547 165.656 48.5947 165.373 48.504C165.181 48.4347 164.973 48.3947 164.749 48.384C164.531 48.3733 164.392 48.368 164.333 48.368H162.077V51.176ZM176.328 47.36V56H175.184V49.272L170.448 56H169.456V47.36H170.6V54.032L175.344 47.36H176.328ZM177.613 56L181.261 51.68L177.765 47.36H179.093L182.501 51.624V47.36H183.589V51.624L186.997 47.36H188.317L184.821 51.68L188.469 56H187.101L183.589 51.736V56H182.501V51.736L178.981 56H177.613ZM193.089 56.24C192.246 56.24 191.515 56.0533 190.897 55.68C190.283 55.3067 189.806 54.7813 189.465 54.104C189.123 53.4267 188.953 52.632 188.953 51.72C188.953 50.776 189.121 49.96 189.457 49.272C189.793 48.584 190.265 48.0533 190.873 47.68C191.486 47.3067 192.209 47.12 193.041 47.12C193.894 47.12 194.622 47.3173 195.225 47.712C195.827 48.1013 196.283 48.6613 196.593 49.392C196.902 50.1227 197.043 50.9947 197.017 52.008H195.817V51.592C195.795 50.472 195.553 49.6267 195.089 49.056C194.63 48.4853 193.958 48.2 193.073 48.2C192.145 48.2 191.433 48.5013 190.937 49.104C190.446 49.7067 190.201 50.5653 190.201 51.68C190.201 52.768 190.446 53.6133 190.937 54.216C191.433 54.8133 192.134 55.112 193.041 55.112C193.659 55.112 194.198 54.9707 194.657 54.688C195.121 54.4 195.486 53.9867 195.753 53.448L196.849 53.872C196.507 54.624 196.003 55.208 195.337 55.624C194.675 56.0347 193.926 56.24 193.089 56.24ZM189.785 52.008V51.024H196.385V52.008H189.785ZM198.55 56V47.36H199.598L202.966 54.432L206.342 47.36H207.382V56H206.246V49.872L203.342 56H202.598L199.694 49.872V56H198.55ZM216.484 47.36V56H215.34V49.272L210.604 56H209.612V47.36H210.756V54.032L215.5 47.36H216.484ZM222.313 56.24C221.444 56.24 220.708 56.0453 220.105 55.656C219.503 55.2667 219.044 54.7307 218.729 54.048C218.42 53.36 218.26 52.5707 218.249 51.68C218.26 50.7733 218.425 49.9787 218.745 49.296C219.065 48.608 219.527 48.0747 220.129 47.696C220.732 47.312 221.463 47.12 222.321 47.12C223.196 47.12 223.956 47.3333 224.601 47.76C225.252 48.1867 225.697 48.7707 225.937 49.512L224.785 49.88C224.583 49.3627 224.26 48.9627 223.817 48.68C223.38 48.392 222.879 48.248 222.313 48.248C221.679 48.248 221.153 48.3947 220.737 48.688C220.321 48.976 220.012 49.3787 219.809 49.896C219.607 50.4133 219.503 51.008 219.497 51.68C219.508 52.7147 219.748 53.5467 220.217 54.176C220.687 54.8 221.385 55.112 222.313 55.112C222.9 55.112 223.399 54.9787 223.809 54.712C224.225 54.44 224.54 54.0453 224.753 53.528L225.937 53.88C225.617 54.648 225.148 55.2347 224.529 55.64C223.911 56.04 223.172 56.24 222.313 56.24ZM229.73 56V48.448H226.666V47.36H233.97V48.448H230.906V56H229.73ZM242.359 47.36V56H241.215V49.272L236.479 56H235.487V47.36H236.631V54.032L241.375 47.36H242.359Z" fill="white"/>
<path fill-rule="evenodd" clip-rule="evenodd" d="M6 11C2.68629 11 0 13.6863 0 17V38C0 41.3137 2.68629 44 6 44C9.31371 44 12 41.3137 12 38V17C12 13.6863 9.31371 11 6 11ZM14 17C14 13.6863 16.6863 11 20 11C23.3137 11 26 13.6863 26 17V51C26 54.3137 23.3137 57 20 57C16.6863 57 14 54.3137 14 51V17ZM28 30C28 26.6863 30.6863 24 34 24C37.3137 24 40 26.6863 40 30V51C40 54.3137 37.3137 57 34 57C30.6863 57 28 54.3137 28 51V30Z" fill="#AA0001"/>
</svg>
