<svg width="39" height="46" viewBox="0 0 39 46" fill="none" xmlns="http://www.w3.org/2000/svg">
<path d="M26.0405 20.5486C28.8469 18.4846 30.6763 15.1306 30.6763 11.3505C30.6763 5.09196 25.6625 0 19.5 0C13.3372 0 8.32367 5.09196 8.32367 11.3505C8.32367 15.1306 10.1531 18.4846 12.9595 20.5486C5.94341 23.7549 0 32.535 0 44.2031C0 45.1956 0.79204 46 1.7693 46H37.2307C38.2076 46 39 45.1956 39 44.2031C39 32.4764 33.0117 23.7345 26.0405 20.5486ZM22.3316 26.3397L21.3274 28.3141H17.6726L16.6684 26.3397L18.4636 22.7473C19.1724 22.6859 19.8269 22.6859 20.536 22.7473L22.3316 26.3397ZM11.8623 11.3505C11.8623 7.07344 15.2886 3.59375 19.5 3.59375C23.7114 3.59375 27.1377 7.07344 27.1377 11.3505C27.1377 15.6275 23.7114 19.1072 19.5 19.1072C15.2882 19.1072 11.8623 15.6275 11.8623 11.3505ZM13.813 24.1125L13.1029 25.5335C12.8458 26.0487 12.8478 26.658 13.1087 27.1714L14.7198 30.3395L11.8371 42.4062H3.5939C4.11087 34.029 8.20825 27.0012 13.813 24.1125ZM15.4783 42.4062L17.9864 31.9079H21.0136L23.5214 42.4062H15.4783ZM27.1629 42.4062L24.2802 30.3395L25.8913 27.1714C26.1522 26.658 26.1542 26.0487 25.8968 25.5335L25.1867 24.1125C30.7917 27.0012 34.8891 34.029 35.4061 42.4062H27.1629Z" fill="#AA0001"/>
</svg>
