<svg width="169" height="34" viewBox="0 0 169 34" fill="none" xmlns="http://www.w3.org/2000/svg">
<path d="M38.5845 15.1565V2.56255H43.6238C44.522 2.56255 45.2481 2.74329 45.8022 3.10479C46.3563 3.46045 46.7617 3.9094 47.0183 4.45164C47.2749 4.99388 47.4032 5.54195 47.4032 6.09585C47.4032 6.80135 47.2428 7.38732 46.9221 7.85376C46.6071 8.32021 46.1726 8.63214 45.6185 8.78956V8.35227C46.4059 8.51553 46.995 8.87994 47.3857 9.4455C47.7824 10.0111 47.9807 10.6437 47.9807 11.3433C47.9807 12.0955 47.8407 12.7572 47.5607 13.3286C47.2866 13.9 46.8666 14.349 46.3009 14.6755C45.7351 14.9962 45.0236 15.1565 44.1662 15.1565H38.5845ZM40.9991 12.9176H43.9212C44.242 12.9176 44.5278 12.8505 44.7786 12.7164C45.0294 12.5765 45.2248 12.3841 45.3648 12.1392C45.5106 11.8885 45.5835 11.5941 45.5835 11.2559C45.5835 10.9585 45.5223 10.6932 45.3998 10.46C45.2773 10.2268 45.0906 10.0431 44.8398 9.90903C44.5949 9.7691 44.2887 9.69913 43.9212 9.69913H40.9991V12.9176ZM40.9991 7.47769H43.5888C43.8571 7.47769 44.0962 7.43105 44.3062 7.33776C44.5161 7.24447 44.6824 7.10162 44.8049 6.90921C44.9273 6.71098 44.9886 6.45735 44.9886 6.14833C44.9886 5.76351 44.869 5.43992 44.6299 5.17754C44.3907 4.91517 44.0437 4.78398 43.5888 4.78398H40.9991V7.47769Z" fill="#212137"/>
<path d="M54.8523 15.4189C53.8374 15.4189 52.945 15.2148 52.1751 14.8067C51.4053 14.3927 50.8045 13.8126 50.3729 13.0663C49.9413 12.32 49.7255 11.4425 49.7255 10.4338V2.58004L52.1401 2.56255V10.4163C52.1401 10.8303 52.2101 11.2063 52.3501 11.5445C52.4901 11.8827 52.6826 12.1742 52.9275 12.4191C53.1783 12.664 53.467 12.8535 53.7937 12.9876C54.1261 13.1158 54.479 13.18 54.8523 13.18C55.2372 13.18 55.593 13.1129 55.9196 12.9788C56.2521 12.8447 56.5408 12.6552 56.7857 12.4103C57.0307 12.1654 57.2203 11.8739 57.3544 11.5357C57.4944 11.1976 57.5644 10.8244 57.5644 10.4163V2.56255H59.9791V10.4338C59.9791 11.4425 59.7632 12.32 59.3316 13.0663C58.9 13.8126 58.2993 14.3927 57.5294 14.8067C56.7595 15.2148 55.8671 15.4189 54.8523 15.4189Z" fill="#212137"/>
<path d="M67.6707 15.4189C66.8775 15.4189 66.1222 15.279 65.4048 14.9991C64.6874 14.7134 64.0517 14.2936 63.4976 13.7397C62.9493 13.1858 62.5148 12.5007 62.194 11.6844C61.879 10.8682 61.7216 9.92652 61.7216 8.85953C61.7216 7.46603 61.9869 6.28243 62.5177 5.30873C63.0543 4.3292 63.7717 3.58289 64.6699 3.0698C65.5739 2.55671 66.5742 2.30017 67.6707 2.30017C69.2922 2.30017 70.5666 2.67624 71.4939 3.42838C72.4213 4.18052 73.0425 5.24459 73.3574 6.6206L70.9253 6.97043C70.6978 6.23579 70.3245 5.64982 69.8054 5.21253C69.2922 4.76941 68.6331 4.54493 67.8282 4.5391C67.0292 4.52744 66.3642 4.69944 65.8335 5.0551C65.3027 5.41076 64.9032 5.91511 64.6349 6.56813C64.3724 7.22115 64.2412 7.98495 64.2412 8.85953C64.2412 9.73411 64.3724 10.4921 64.6349 11.1334C64.9032 11.7748 65.3027 12.2733 65.8335 12.629C66.3642 12.9846 67.0292 13.1683 67.8282 13.18C68.3706 13.1916 68.8606 13.0983 69.298 12.9001C69.7413 12.7019 70.1146 12.3899 70.4178 11.9643C70.7211 11.5387 70.9369 10.9935 71.0653 10.3288H69.0705V8.49221H73.6024C73.6141 8.568 73.6228 8.70211 73.6286 8.89451C73.6345 9.08692 73.6374 9.1977 73.6374 9.22686C73.6374 10.4338 73.3924 11.5037 72.9025 12.4366C72.4126 13.3695 71.7214 14.1012 70.829 14.6318C69.9367 15.1565 68.8839 15.4189 67.6707 15.4189Z" fill="#212137"/>
<path d="M74.1742 15.1565L78.0237 2.56255H81.5757L85.4251 15.1565H82.9755L79.546 4.04933H80.0009L76.6239 15.1565H74.1742ZM76.4839 12.5328V10.3113H83.133V12.5328H76.4839Z" fill="#212137"/>
<path d="M92.0582 15.4189C90.7984 15.4189 89.7106 15.1449 88.7949 14.5968C87.885 14.0487 87.1822 13.282 86.6865 12.2966C86.1965 11.3113 85.9516 10.1656 85.9516 8.85953C85.9516 7.55349 86.1965 6.40779 86.6865 5.42243C87.1822 4.43706 87.885 3.67035 88.7949 3.12228C89.7106 2.57421 90.7984 2.30017 92.0582 2.30017C93.5047 2.30017 94.7178 2.65875 95.6977 3.37591C96.6834 4.09306 97.3775 5.06385 97.7799 6.28826L95.3827 6.95294C95.1494 6.18914 94.7557 5.59734 94.2017 5.17754C93.6476 4.75191 92.9331 4.5391 92.0582 4.5391C91.2592 4.5391 90.5913 4.71693 90.0547 5.07259C89.524 5.42826 89.1245 5.92968 88.8562 6.57687C88.5879 7.22406 88.4537 7.98495 88.4537 8.85953C88.4537 9.73411 88.5879 10.495 88.8562 11.1422C89.1245 11.7894 89.524 12.2908 90.0547 12.6465C90.5913 13.0021 91.2592 13.18 92.0582 13.18C92.9331 13.18 93.6476 12.9671 94.2017 12.5415C94.7557 12.1159 95.1494 11.5241 95.3827 10.7661L97.7799 11.4308C97.3775 12.6552 96.6834 13.626 95.6977 14.3432C94.7178 15.0603 93.5047 15.4189 92.0582 15.4189Z" fill="#212137"/>
<path d="M99.7063 15.1565V2.56255H102.086V7.74007H107.72V2.56255H110.1V15.1565H107.72V9.9615H102.086V15.1565H99.7063Z" fill="#212137"/>
<path d="M112.731 15.1565V2.56255H115.111V15.1565H112.731Z" fill="#212137"/>
<path d="M117.734 15.1565V2.56255H125.957V4.78398H120.113V7.47769H124.908V9.69913H120.113V12.9351H125.957V15.1565H117.734Z" fill="#212137"/>
<path d="M130.766 15.1565L126.917 2.56255H129.367L132.516 12.9176L135.718 2.56255H138.168L134.318 15.1565H130.766Z" fill="#212137"/>
<path d="M139.453 15.1565V13.3944H141.216V15.1565H139.453Z" fill="#212137"/>
<path d="M146.405 15.3509C145.679 15.3509 145.057 15.1889 144.538 14.865C144.02 14.5411 143.622 14.1005 143.346 13.5434C143.069 12.9863 142.931 12.3579 142.931 11.6582C142.931 10.9499 143.074 10.3172 143.359 9.76003C143.648 9.20289 144.054 8.76451 144.577 8.44491C145.1 8.12531 145.718 7.96551 146.431 7.96551C147.256 7.96551 147.947 8.17498 148.504 8.59392C149.066 9.00853 149.425 9.57647 149.58 10.2977L147.817 10.7642C147.714 10.4014 147.532 10.1185 147.273 9.91551C147.018 9.71252 146.729 9.61102 146.405 9.61102C146.033 9.61102 145.729 9.70172 145.491 9.88312C145.253 10.0602 145.078 10.3042 144.966 10.6152C144.854 10.9218 144.797 11.2695 144.797 11.6582C144.797 12.2672 144.931 12.7617 145.199 13.1417C145.471 13.5175 145.873 13.7054 146.405 13.7054C146.802 13.7054 147.105 13.6147 147.312 13.4333C147.519 13.2519 147.675 12.9927 147.779 12.6559L149.58 13.0316C149.381 13.7745 149.006 14.3467 148.453 14.7484C147.9 15.15 147.217 15.3509 146.405 15.3509Z" fill="#212137"/>
<path d="M153.836 15.3509C153.132 15.3509 152.514 15.1932 151.983 14.8779C151.451 14.5627 151.036 14.1286 150.738 13.5758C150.445 13.0187 150.298 12.3795 150.298 11.6582C150.298 10.9283 150.449 10.2869 150.751 9.73411C151.054 9.17697 151.471 8.74292 152.002 8.43196C152.533 8.121 153.145 7.96551 153.836 7.96551C154.54 7.96551 155.158 8.12316 155.69 8.43844C156.225 8.75372 156.642 9.18993 156.94 9.74707C157.238 10.2999 157.387 10.9369 157.387 11.6582C157.387 12.3838 157.236 13.0251 156.934 13.5823C156.636 14.1351 156.219 14.5691 155.683 14.8844C155.152 15.1954 154.536 15.3509 153.836 15.3509ZM153.836 13.7054C154.402 13.7054 154.823 13.5153 155.1 13.1353C155.381 12.7509 155.521 12.2585 155.521 11.6582C155.521 11.0363 155.378 10.5396 155.093 10.1682C154.812 9.79674 154.393 9.61102 153.836 9.61102C153.452 9.61102 153.136 9.6974 152.89 9.87016C152.644 10.0429 152.46 10.2826 152.339 10.5893C152.222 10.8959 152.164 11.2522 152.164 11.6582C152.164 12.2844 152.304 12.7833 152.585 13.1547C152.87 13.5218 153.287 13.7054 153.836 13.7054Z" fill="#212137"/>
<path d="M167.237 15.1565V11.0233C167.237 10.5612 167.127 10.2027 166.907 9.9479C166.691 9.68876 166.39 9.5592 166.006 9.5592C165.76 9.5592 165.546 9.6175 165.364 9.73411C165.183 9.8464 165.04 10.0062 164.937 10.2135C164.837 10.4165 164.788 10.6519 164.788 10.9197L164.049 10.4273C164.049 9.9479 164.161 9.52465 164.386 9.15754C164.615 8.79043 164.919 8.50538 165.3 8.30239C165.684 8.09508 166.11 7.99143 166.576 7.99143C167.376 7.99143 167.978 8.22897 168.384 8.70405C168.795 9.17481 169 9.79242 169 10.5569V15.1565H167.237ZM158.8 15.1565V8.15987H160.355V10.4791H160.575V15.1565H158.8ZM163.025 15.1565V11.0233C163.025 10.5612 162.915 10.2027 162.694 9.9479C162.478 9.68876 162.178 9.5592 161.794 9.5592C161.426 9.5592 161.13 9.6866 160.906 9.94142C160.685 10.1919 160.575 10.518 160.575 10.9197L159.836 10.4014C159.836 9.94358 159.951 9.53328 160.18 9.17049C160.409 8.8077 160.716 8.5205 161.1 8.30887C161.489 8.09724 161.923 7.99143 162.403 7.99143C162.951 7.99143 163.401 8.10804 163.751 8.34126C164.105 8.57448 164.366 8.88545 164.535 9.27415C164.703 9.66285 164.788 10.0904 164.788 10.5569V15.1565H163.025Z" fill="#212137"/>
<path d="M37.8127 30.6598V23.1358H38.5153L41.4609 29.4633L44.391 23.1358H45.1039V30.6546H44.3753V24.8496L41.7055 30.6598H41.2111L38.5465 24.8496V30.6598H37.8127Z" fill="#212137"/>
<path d="M48.1726 30.8165C47.7493 30.8165 47.3937 30.7399 47.1057 30.5866C46.8212 30.4334 46.6078 30.2296 46.4656 29.9753C46.3233 29.721 46.2522 29.4441 46.2522 29.1445C46.2522 28.838 46.3129 28.5767 46.4344 28.3608C46.5593 28.1413 46.7275 27.9619 46.9392 27.8226C47.1543 27.6833 47.4024 27.577 47.6834 27.5039C47.9679 27.4342 48.2819 27.3733 48.6254 27.321C48.9723 27.2653 49.3106 27.2183 49.6402 27.1799C49.9733 27.1381 50.2647 27.0981 50.5145 27.0598L50.2439 27.227C50.2543 26.6696 50.1467 26.2569 49.9212 25.9886C49.6957 25.7204 49.3037 25.5863 48.7451 25.5863C48.3599 25.5863 48.0338 25.6734 47.7667 25.8476C47.503 26.0217 47.3174 26.2969 47.2098 26.6731L46.4656 26.4537C46.594 25.9486 46.8524 25.5567 47.241 25.278C47.6296 24.9994 48.1344 24.86 48.7555 24.86C49.269 24.86 49.7044 24.9576 50.0617 25.1526C50.4226 25.3442 50.6776 25.6229 50.8268 25.9886C50.8962 26.1524 50.9413 26.3352 50.9621 26.5373C50.9829 26.7393 50.9933 26.9448 50.9933 27.1538V30.6598H50.3115V29.2438L50.5093 29.3274C50.3185 29.8116 50.0218 30.1808 49.6194 30.4351C49.2169 30.6894 48.7347 30.8165 48.1726 30.8165ZM48.2611 30.153C48.6184 30.153 48.9307 30.0885 49.1978 29.9596C49.465 29.8307 49.6801 29.6548 49.8432 29.4319C50.0062 29.2055 50.1121 28.9512 50.1606 28.6691C50.2023 28.4879 50.2248 28.2894 50.2283 28.0734C50.2317 27.854 50.2335 27.6902 50.2335 27.5823L50.5249 27.7338C50.2647 27.7686 49.9819 27.8035 49.6766 27.8383C49.3748 27.8731 49.0764 27.9132 48.7815 27.9585C48.4901 28.0037 48.2264 28.0577 47.9904 28.1204C47.8308 28.1657 47.6764 28.2302 47.5273 28.3138C47.3781 28.3939 47.2549 28.5019 47.1578 28.6377C47.0641 28.7736 47.0172 28.9425 47.0172 29.1445C47.0172 29.3082 47.0571 29.4667 47.1369 29.62C47.2202 29.7733 47.352 29.9004 47.5325 30.0014C47.7163 30.1024 47.9592 30.153 48.2611 30.153Z" fill="#212137"/>
<path d="M54.8722 30.8165C54.3552 30.8165 53.9181 30.6859 53.5607 30.4247C53.2034 30.1599 52.9327 29.8029 52.7489 29.3535C52.565 28.9007 52.473 28.3939 52.473 27.8331C52.473 27.2618 52.565 26.7532 52.7489 26.3074C52.9362 25.858 53.2103 25.5045 53.5711 25.2467C53.932 24.9889 54.3761 24.86 54.9034 24.86C55.4169 24.86 55.8575 24.9907 56.2253 25.2519C56.5931 25.5132 56.8741 25.8685 57.0684 26.3178C57.2662 26.7672 57.3651 27.2722 57.3651 27.8331C57.3651 28.3974 57.2662 28.9042 57.0684 29.3535C56.8706 29.8029 56.5861 30.1599 56.2149 30.4247C55.8437 30.6859 55.3961 30.8165 54.8722 30.8165ZM52.3429 33.1678V25.0168H53.0299V29.2647H53.1132V33.1678H52.3429ZM54.7941 30.1007C55.1862 30.1007 55.5123 30.0014 55.7725 29.8029C56.0328 29.6043 56.2271 29.3344 56.3554 28.993C56.4873 28.6482 56.5532 28.2615 56.5532 27.8331C56.5532 27.4081 56.489 27.0249 56.3606 26.6836C56.2323 26.3422 56.0362 26.0722 55.7725 25.8737C55.5123 25.6751 55.181 25.5759 54.7785 25.5759C54.3865 25.5759 54.0603 25.6717 53.8001 25.8632C53.5434 26.0548 53.3508 26.3213 53.2224 26.6627C53.0941 27.0005 53.0299 27.3907 53.0299 27.8331C53.0299 28.2685 53.0941 28.6586 53.2224 29.0035C53.3508 29.3448 53.5451 29.613 53.8053 29.8081C54.0655 30.0032 54.3951 30.1007 54.7941 30.1007Z" fill="#212137"/>
<path d="M58.5027 30.6598L58.5079 25.0168H59.2781V27.7338L61.7866 25.0168H62.8066L60.1732 27.8383L63.1501 30.6598H62.0364L59.2781 27.9428V30.6598H58.5027Z" fill="#212137"/>
<path d="M65.8466 30.8165C65.2984 30.8165 64.8231 30.6946 64.4206 30.4508C64.0216 30.2069 63.7111 29.8638 63.489 29.4215C63.267 28.9791 63.1559 28.4601 63.1559 27.8644C63.1559 27.2479 63.2652 26.7149 63.4838 26.2656C63.7024 25.8162 64.0095 25.4696 64.405 25.2258C64.804 24.982 65.2741 24.86 65.8153 24.86C66.3705 24.86 66.844 24.9889 67.2361 25.2467C67.6282 25.501 67.9248 25.8667 68.126 26.3439C68.3273 26.8212 68.4192 27.3907 68.4019 28.0525H67.6212V27.7808C67.6073 27.0493 67.4495 26.4972 67.1476 26.1245C66.8493 25.7518 66.4121 25.5654 65.8362 25.5654C65.2325 25.5654 64.7693 25.7622 64.4466 26.1558C64.1274 26.5495 63.9678 27.1103 63.9678 27.8383C63.9678 28.5489 64.1274 29.101 64.4466 29.4946C64.7693 29.8847 65.2255 30.0798 65.8153 30.0798C66.2178 30.0798 66.5682 29.9875 66.8666 29.8029C67.1684 29.6148 67.4061 29.3448 67.5796 28.993L68.2926 29.2699C68.0705 29.7611 67.7427 30.1425 67.309 30.4142C66.8787 30.6824 66.3913 30.8165 65.8466 30.8165ZM63.6972 28.0525V27.4098H67.9907V28.0525H63.6972Z" fill="#212137"/>
<path d="M71.0105 30.6598V25.7274H69.0173V25.0168H73.7688V25.7274H71.7755V30.6598H71.0105Z" fill="#212137"/>
<path d="M76.8448 30.6598V23.1358H77.6099V26.5268H81.7525V23.1358H82.5123V30.6598H81.7525V27.2635H77.6099V30.6598H76.8448Z" fill="#212137"/>
<path d="M86.3486 30.8165C85.8004 30.8165 85.3251 30.6946 84.9226 30.4508C84.5236 30.2069 84.2131 29.8638 83.991 29.4215C83.769 28.9791 83.658 28.4601 83.658 27.8644C83.658 27.2479 83.7672 26.7149 83.9858 26.2656C84.2044 25.8162 84.5115 25.4696 84.907 25.2258C85.306 24.982 85.7761 24.86 86.3173 24.86C86.8725 24.86 87.3461 24.9889 87.7381 25.2467C88.1302 25.501 88.4268 25.8667 88.628 26.3439C88.8293 26.8212 88.9212 27.3907 88.9039 28.0525H88.1232V27.7808C88.1093 27.0493 87.9515 26.4972 87.6496 26.1245C87.3513 25.7518 86.9141 25.5654 86.3382 25.5654C85.7345 25.5654 85.2713 25.7622 84.9486 26.1558C84.6294 26.5495 84.4698 27.1103 84.4698 27.8383C84.4698 28.5489 84.6294 29.101 84.9486 29.4946C85.2713 29.8847 85.7275 30.0798 86.3173 30.0798C86.7198 30.0798 87.0702 29.9875 87.3686 29.8029C87.6705 29.6148 87.9081 29.3448 88.0816 28.993L88.7946 29.2699C88.5725 29.7611 88.2447 30.1425 87.811 30.4142C87.3807 30.6824 86.8933 30.8165 86.3486 30.8165ZM84.1992 28.0525V27.4098H88.4927V28.0525H84.1992Z" fill="#212137"/>
<path d="M89.6425 31.9138V30.0014C89.9617 30.0014 90.1907 29.8987 90.3294 29.6932C90.4682 29.4842 90.581 29.1515 90.6677 28.6952C90.7267 28.3991 90.7753 28.0804 90.8134 27.739C90.8516 27.3976 90.8846 27.0075 90.9123 26.5686C90.9401 26.1262 90.9661 25.609 90.9904 25.0168H94.7062V30.0014H95.2475V31.9138H94.5085V30.6598H90.3763V31.9138H89.6425ZM90.9383 30.0014H93.9464V25.6751H91.6982C91.6877 25.9399 91.6721 26.2203 91.6513 26.5164C91.634 26.8124 91.6114 27.1085 91.5837 27.4046C91.5594 27.7007 91.5299 27.9794 91.4952 28.2406C91.464 28.4984 91.4258 28.7248 91.3807 28.9199C91.3287 29.1707 91.2714 29.3849 91.209 29.5625C91.15 29.7402 91.0598 29.8865 90.9383 30.0014Z" fill="#212137"/>
<path d="M96.2845 30.6598V25.0168H98.6004C98.7184 25.0168 98.8606 25.0238 99.0272 25.0377C99.1972 25.0516 99.355 25.0778 99.5008 25.1161C99.8165 25.1997 100.07 25.3704 100.261 25.6281C100.455 25.8859 100.552 26.1959 100.552 26.5582C100.552 26.7602 100.521 26.9413 100.458 27.1016C100.399 27.2583 100.314 27.3942 100.203 27.5091C100.151 27.5683 100.094 27.6206 100.032 27.6659C99.9691 27.7077 99.9084 27.7425 99.8494 27.7704C99.9605 27.7913 100.08 27.84 100.209 27.9167C100.41 28.0351 100.562 28.1953 100.667 28.3974C100.771 28.5959 100.823 28.838 100.823 29.1236C100.823 29.5103 100.731 29.8255 100.547 30.0694C100.363 30.3132 100.117 30.4804 99.8078 30.571C99.669 30.6093 99.5181 30.6337 99.355 30.6441C99.1954 30.6546 99.0445 30.6598 98.9023 30.6598H96.2845ZM97.0547 30.0067H98.8658C98.9387 30.0067 99.0306 30.0014 99.1417 29.991C99.2527 29.977 99.3516 29.9596 99.4383 29.9387C99.643 29.8865 99.7922 29.782 99.8859 29.6252C99.983 29.465 100.032 29.2908 100.032 29.1027C100.032 28.8554 99.9587 28.6534 99.813 28.4966C99.6708 28.3364 99.4799 28.2389 99.2405 28.204C99.1607 28.1866 99.0775 28.1762 98.9907 28.1727C98.904 28.1692 98.8259 28.1675 98.7565 28.1675H97.0547V30.0067ZM97.0547 27.5091H98.6264C98.7166 27.5091 98.8173 27.5039 98.9283 27.4934C99.0428 27.4795 99.1417 27.4569 99.2249 27.4255C99.4053 27.3628 99.5372 27.2548 99.6204 27.1016C99.7072 26.9483 99.7506 26.7811 99.7506 26.6C99.7506 26.4014 99.7037 26.2272 99.61 26.0775C99.5198 25.9277 99.3828 25.8232 99.1989 25.764C99.074 25.7187 98.9387 25.6926 98.793 25.6856C98.6507 25.6786 98.5605 25.6751 98.5223 25.6751H97.0547V27.5091Z" fill="#212137"/>
<path d="M106.325 25.0168V30.6598H105.581V26.2656L102.5 30.6598H101.855V25.0168H102.599V29.3744L105.685 25.0168H106.325Z" fill="#212137"/>
<path d="M107.161 30.6598L109.535 27.8383L107.26 25.0168H108.124L110.341 27.8017V25.0168H111.049V27.8017L113.266 25.0168H114.125L111.85 27.8383L114.224 30.6598H113.334L111.049 27.8749V30.6598H110.341V27.8749L108.051 30.6598H107.161Z" fill="#212137"/>
<path d="M119.519 25.0168V30.6598H118.775V26.2656L115.694 30.6598H115.048V25.0168H115.793V29.3744L118.879 25.0168H119.519Z" fill="#212137"/>
<path d="M120.974 30.6598V25.0168H121.656L123.847 29.6357L126.043 25.0168H126.72V30.6598H125.981V26.6574L124.092 30.6598H123.608L121.719 26.6574V30.6598H120.974Z" fill="#212137"/>
<path d="M130.523 30.8165C129.965 30.8165 129.488 30.6894 129.092 30.4351C128.697 30.1808 128.393 29.829 128.181 29.3797C127.97 28.9303 127.864 28.4148 127.864 27.8331C127.864 27.2409 127.971 26.7219 128.186 26.276C128.402 25.8302 128.707 25.4836 129.102 25.2362C129.501 24.9854 129.975 24.86 130.523 24.86C131.085 24.86 131.564 24.9872 131.96 25.2415C132.359 25.4923 132.662 25.8423 132.87 26.2917C133.082 26.7376 133.188 27.2513 133.188 27.8331C133.188 28.4252 133.082 28.946 132.87 29.3953C132.659 29.8412 132.353 30.1895 131.954 30.4403C131.555 30.6911 131.078 30.8165 130.523 30.8165ZM130.523 30.0798C131.148 30.0798 131.613 29.8725 131.918 29.458C132.223 29.04 132.376 28.4984 132.376 27.8331C132.376 27.1503 132.222 26.6069 131.913 26.2029C131.607 25.7988 131.144 25.5968 130.523 25.5968C130.103 25.5968 129.756 25.6926 129.482 25.8841C129.212 26.0722 129.009 26.3352 128.873 26.6731C128.742 27.0075 128.676 27.3942 128.676 27.8331C128.676 28.5123 128.832 29.0574 129.144 29.4685C129.456 29.876 129.916 30.0798 130.523 30.0798Z" fill="#212137"/>
<path d="M136.667 30.8165C136.102 30.8165 135.623 30.6894 135.231 30.4351C134.839 30.1808 134.541 29.8307 134.336 29.3849C134.135 28.9355 134.031 28.42 134.024 27.8383C134.031 27.2461 134.138 26.7271 134.346 26.2812C134.554 25.8319 134.855 25.4836 135.247 25.2362C135.639 24.9854 136.114 24.86 136.673 24.86C137.242 24.86 137.736 24.9994 138.156 25.278C138.579 25.5567 138.869 25.9381 139.025 26.4223L138.275 26.6627C138.144 26.3248 137.934 26.0635 137.646 25.8789C137.361 25.6908 137.035 25.5968 136.667 25.5968C136.254 25.5968 135.913 25.6926 135.642 25.8841C135.371 26.0722 135.17 26.3352 135.038 26.6731C134.907 27.011 134.839 27.3994 134.835 27.8383C134.842 28.5141 134.999 29.0574 135.304 29.4685C135.609 29.876 136.064 30.0798 136.667 30.0798C137.049 30.0798 137.373 29.9927 137.641 29.8186C137.911 29.6409 138.116 29.3831 138.255 29.0453L139.025 29.2752C138.817 29.7768 138.511 30.1599 138.109 30.4247C137.706 30.6859 137.226 30.8165 136.667 30.8165Z" fill="#212137"/>
<path d="M141.492 30.6598V25.7274H139.499V25.0168H144.25V25.7274H142.257V30.6598H141.492Z" fill="#212137"/>
<path d="M149.708 25.0168V30.6598H148.964V26.2656L145.883 30.6598H145.237V25.0168H145.981V29.3744L149.068 25.0168H149.708Z" fill="#212137"/>
<path fill-rule="evenodd" clip-rule="evenodd" d="M3.89804 0C1.74521 0 0 1.74521 0 3.89804V17.5412C0 19.694 1.74521 21.4392 3.89804 21.4392C6.05087 21.4392 7.79608 19.694 7.79608 17.5412V3.89804C7.79608 1.74521 6.05087 0 3.89804 0ZM9.09542 3.89805C9.09542 1.74522 10.8406 6.79493e-06 12.9935 6.79493e-06C15.1463 6.79493e-06 16.8915 1.74522 16.8915 3.89805V25.9869C16.8915 28.1398 15.1463 29.885 12.9935 29.885C10.8406 29.885 9.09542 28.1398 9.09542 25.9869V3.89805ZM18.1908 12.3438C18.1908 10.191 19.9361 8.44576 22.0889 8.44576C24.2417 8.44576 25.9869 10.191 25.9869 12.3438V25.9869C25.9869 28.1398 24.2417 29.885 22.0889 29.885C19.9361 29.885 18.1908 28.1398 18.1908 25.9869V12.3438Z" fill="#AA0001"/>
</svg>
