<svg width="35" height="44" viewBox="0 0 35 44" fill="none" xmlns="http://www.w3.org/2000/svg">
<path d="M33.9005 7.12473L18.0678 0.131388C17.6711 -0.043753 17.2253 -0.0438389 16.8288 0.131388L0.996087 7.12473C0.393071 7.39114 0 8.01745 0 8.71208V17.2135C0 28.9193 6.65046 39.4489 16.8377 43.8726C17.229 44.0425 17.6674 44.0425 18.0588 43.8726C28.2459 39.449 34.8966 28.9194 34.8966 17.2135V8.71208C34.8966 8.01745 34.5036 7.39114 33.9005 7.12473ZM31.6654 17.2135C31.6654 27.1646 26.1724 36.3253 17.4483 40.4144C8.95727 36.4345 3.23116 27.4343 3.23116 17.2135V9.85952L17.4483 3.57972L31.6654 9.85952V17.2135ZM15.6626 23.0068L22.6067 15.6194C23.2376 14.9482 24.2605 14.9481 24.8914 15.6194C25.5224 16.2907 25.5223 17.3789 24.8913 18.0501L16.805 26.6528C16.1739 27.3242 15.151 27.3239 14.5202 26.6528L10.0051 21.8494C9.37417 21.1782 9.37417 20.09 10.0051 19.4188C10.6361 18.7476 11.659 18.7475 12.2899 19.4188L15.6626 23.0068Z" fill="#AA0001"/>
</svg>
