<svg width="39" height="45" viewBox="0 0 39 45" fill="none" xmlns="http://www.w3.org/2000/svg">
<path d="M29.7577 27.0446C30.418 26.1935 30.9696 25.2579 31.3929 24.2578H33.6601C36.6044 24.2578 39 21.9184 39 19.0431C39 16.7579 37.4869 14.813 35.388 14.1099C34.6241 6.20556 27.7907 0 19.5002 0C11.2096 0 4.37591 6.20556 3.61196 14.1099C1.51348 14.813 0 16.7579 0 19.0431C0 21.9184 2.39555 24.2578 5.34025 24.2578H7.60713C8.03041 25.2579 8.58202 26.1935 9.24226 27.0446C3.62357 30.4404 0 36.4877 0 43.2422C0 44.2131 0.805784 45 1.80001 45H37.2C38.1942 45 39 44.2131 39 43.2422C39.0004 36.4921 35.3796 30.4421 29.7577 27.0446ZM33.6601 20.7422H32.2974C32.4113 19.6377 32.379 18.4958 32.1765 17.3436H33.6601C34.6195 17.3436 35.4 18.1062 35.4 19.0431C35.4003 19.98 34.6195 20.7422 33.6601 20.7422ZM19.5002 3.51562C25.7042 3.51562 30.8543 8.00285 31.7286 13.828H30.9872C26.2249 4.62662 12.7807 4.61632 8.01284 13.828H7.27174C8.14573 8.00285 13.2961 3.51562 19.5002 3.51562ZM5.34025 20.7422C4.38083 20.7422 3.60001 19.98 3.60001 19.0431C3.60001 18.1062 4.38083 17.3436 5.34025 17.3436H6.8235C6.6319 18.4357 6.58268 19.577 6.70256 20.7422H5.34025ZM19.5002 20.7422H10.3289C9.5446 15.3029 13.8762 10.4298 19.5002 10.4298C25.7446 10.4298 30.1213 16.3501 28.3958 21.9967C26.1623 29.4993 15.8886 30.8884 11.6417 24.2578H19.5002C20.4944 24.2578 21.3002 23.4709 21.3002 22.5C21.3002 21.5291 20.4944 20.7422 19.5002 20.7422ZM3.70091 41.4844C4.29013 36.3891 7.41237 31.9891 11.8994 29.6016C16.4254 32.8502 22.5778 32.8481 27.101 29.6016C31.5848 31.9874 34.7095 36.3857 35.2991 41.4844H3.70091Z" fill="#AA0001"/>
</svg>
